<svg version="1.1" id="Layer_1" xmlns="http://www.w3.org/2000/svg" xmlns:xlink="http://www.w3.org/1999/xlink" x="0px" y="0px"
	 width="100%" viewBox="0 0 2271 689" enable-background="new 0 0 2271 689" xml:space="preserve">
<path fill="#FFFFFF" opacity="1.000000" stroke="none" 
	d="
M2271.584961,418.865204 
	C2272.000000,507.815948 2271.974854,596.631958 2272.089600,685.447754 
	C2272.094238,689.102539 2271.425781,690.101807 2267.553955,690.101135 
	C1616.015137,689.995789 964.476196,690.000000 312.468658,690.000000 
	C312.174286,687.393860 314.486572,687.514160 316.050018,687.196228 
	C335.866974,683.166138 352.131775,672.611694 366.389496,658.949829 
	C377.360687,648.437134 386.340118,636.175659 393.974609,622.972412 
	C413.504150,589.197510 423.330688,552.458557 427.807251,513.989136 
	C429.680847,497.888641 429.677582,481.769623 429.682892,465.622284 
	C429.695343,427.758026 441.704865,394.025574 464.783203,364.134003 
	C468.152222,359.770386 468.293762,359.650787 463.959259,356.323486 
	C445.195404,341.919586 429.839020,324.552643 418.630859,303.709473 
	C407.363129,282.755493 400.664978,260.497833 399.516754,236.533997 
	C399.038391,226.549896 398.395721,216.574081 398.730011,206.601944 
	C400.301178,159.731430 409.499481,114.705238 432.043732,73.069679 
	C443.357605,52.174774 457.805115,33.839844 477.034332,19.555912 
	C480.792053,16.764561 484.785828,14.355379 488.902222,12.164615 
	C490.723541,11.195305 492.848145,9.408537 494.845123,11.166677 
	C496.572815,12.687738 495.379608,14.968992 494.856201,16.823145 
	C491.635895,28.230312 489.248322,39.806252 487.789917,51.563103 
	C486.417114,62.630203 485.173920,73.711197 485.319397,84.898117 
	C485.546906,102.388596 498.261566,119.326218 514.244629,123.340996 
	C533.094910,128.076004 551.218872,120.484375 560.337708,103.907707 
	C564.682312,96.009758 565.365540,87.375412 564.510986,78.634880 
	C560.952881,42.240044 534.519165,12.481896 498.779022,4.407523 
	C496.390320,3.867867 493.750061,3.888803 491.970703,1.396299 
	C1083.715454,1.000000 1675.431030,1.004366 2267.146484,0.904675 
	C2270.982178,0.904029 2272.129883,1.367383 2272.125000,5.644783 
	C2271.972656,141.450623 2272.000000,277.256683 2272.000000,413.531342 
	C2269.618896,415.227905 2268.652100,413.223267 2267.627441,411.881226 
	C2266.003662,409.753754 2264.211426,409.568634 2261.943848,410.632904 
	C2258.775146,412.119995 2255.551758,413.492889 2252.159424,414.406494 
	C2240.339600,417.589905 2230.269531,411.893463 2227.136230,400.041809 
	C2225.341309,393.253723 2224.631104,386.245026 2224.602295,379.256104 
	C2224.472656,347.591583 2224.527588,315.926270 2224.558350,284.261261 
	C2224.566162,276.227295 2225.274902,275.583405 2233.524414,275.550079 
	C2240.523926,275.521820 2247.526855,275.423553 2254.521973,275.586365 
	C2258.625000,275.681824 2259.608398,273.650391 2259.589355,270.032562 
	C2259.570801,266.484497 2258.741211,264.337463 2254.580811,264.416321 
	C2246.917969,264.561584 2239.248535,264.536438 2231.583252,264.424255 
	C2225.645264,264.337372 2224.626465,263.359314 2224.585693,257.333252 
	C2224.475342,241.001266 2224.611572,224.668060 2224.487305,208.336441 
	C2224.467773,205.791428 2225.732910,202.350449 2221.414062,201.558701 
	C2216.922852,200.735291 2214.839111,201.823044 2213.158936,206.510330 
	C2207.740723,221.628128 2199.758057,235.019180 2188.280762,246.460068 
	C2180.048340,254.666611 2170.826416,260.795837 2159.719727,264.141907 
	C2157.333496,264.860809 2154.945312,265.494598 2154.523438,268.719147 
	C2153.856689,273.816101 2155.060303,275.434937 2160.197021,275.532684 
	C2163.362549,275.592987 2166.531494,275.475006 2169.696045,275.573517 
	C2175.289795,275.747589 2176.229736,276.732361 2176.430176,282.463623 
	C2176.488525,284.129028 2176.454834,285.796539 2176.454834,287.463104 
	C2176.455566,320.961365 2176.483643,354.459717 2176.423828,387.957855 
	C2176.415283,392.827209 2176.947754,397.604218 2177.914795,402.345825 
	C2181.916748,421.973358 2195.630615,433.497253 2215.694580,434.545380 
	C2233.890625,435.495972 2250.872803,432.326691 2265.761719,421.101807 
	C2267.345215,419.907959 2269.042725,418.777283 2271.584961,418.865204 
z"/>
<path fill="#FFFFFF" opacity="1.000000" stroke="none" 
	d="
M1.385753,547.096130 
	C1.000000,366.577728 1.017813,186.155426 0.886815,5.733243 
	C0.883850,1.648510 1.740481,0.887174 5.762840,0.890532 
	C160.529373,1.019719 315.296051,1.000000 470.531342,1.000000 
	C470.921570,3.468848 468.782745,3.238650 467.353088,3.499794 
	C435.122406,9.387171 412.769409,29.393688 394.700287,55.013870 
	C372.241089,86.858841 360.549042,122.981819 354.371948,161.083420 
	C351.087189,181.344467 349.776764,201.769348 350.334961,222.295059 
	C351.109344,250.770370 344.350708,277.417603 331.219574,302.592926 
	C327.246979,310.209320 322.126923,316.905273 316.314117,323.160278 
	C311.661407,328.166931 311.774567,328.659271 316.930237,332.820190 
	C350.648041,360.032196 371.314667,395.102509 378.619263,437.680420 
	C381.942474,457.051056 381.945068,476.718872 380.645203,496.427032 
	C379.468170,514.272461 377.280090,531.906555 373.359161,549.314087 
	C365.278076,585.191406 351.781891,618.681702 328.257263,647.418945 
	C317.645020,660.382690 305.324158,671.585815 290.393646,679.592407 
	C289.218079,680.222778 288.072388,680.918884 286.769806,681.257263 
	C284.356903,681.884033 283.265411,680.896057 283.466705,678.450317 
	C283.590363,676.947876 284.038666,675.510742 284.434570,674.063293 
	C290.486725,651.934204 293.825928,629.441345 293.688690,606.456421 
	C293.548828,583.038696 275.403778,565.563354 251.902924,566.344177 
	C229.685425,567.082336 212.438492,586.643127 214.467621,609.570129 
	C216.989868,638.068909 230.152267,660.478271 254.448593,675.952026 
	C262.080292,680.812500 270.408813,684.230774 279.230713,686.383484 
	C281.124512,686.845642 283.304291,686.907104 284.077026,689.610718 
	C191.101532,690.000000 98.203049,689.978516 5.304702,690.084412 
	C1.863020,690.088318 0.867222,689.582458 0.886031,685.813354 
	C1.073795,648.188721 1.000000,610.562866 1.000000,572.468628 
	C4.847035,572.217957 4.454838,575.561768 5.045640,577.875610 
	C8.983510,593.298401 16.625021,606.635864 28.078217,617.562073 
	C41.849361,630.699646 58.188877,638.614807 77.333824,640.759888 
	C103.737839,643.718323 126.072021,634.603455 146.094620,618.354980 
	C162.798294,604.799866 175.012314,587.649963 185.105377,568.849854 
	C202.388809,536.656555 211.697433,502.048218 215.301392,465.921326 
	C216.864105,450.256531 217.528702,434.519104 216.998642,418.632446 
	C215.791229,382.445496 221.424713,347.545624 241.709167,316.355072 
	C245.159149,311.050201 244.953384,310.849426 238.987350,309.122192 
	C191.940689,295.501831 144.863358,281.987762 97.100807,268.247559 
	C103.965103,273.025848 109.918831,277.887573 115.670097,283.049225 
	C128.328171,294.409607 138.232834,307.859253 147.148376,322.218781 
	C158.542694,340.570587 162.061691,361.179016 165.368576,381.979706 
	C168.947510,404.491638 169.377319,427.190002 168.087952,449.754974 
	C165.480515,495.387390 154.720596,538.996582 130.977127,578.629211 
	C119.040001,598.554749 104.204529,615.954285 84.236748,628.446289 
	C81.262253,630.307068 78.244598,632.082703 74.922035,633.228821 
	C72.579964,634.036682 71.395317,633.157898 71.684311,630.583374 
	C71.815132,629.418030 72.102112,628.292358 72.410164,627.166321 
	C78.594955,604.557861 82.075424,581.604431 81.704811,558.093567 
	C81.420647,540.067139 68.863014,523.648254 51.328056,520.085327 
	C32.271832,516.213257 14.712925,524.297852 6.431993,541.094727 
	C5.287512,543.416138 4.846289,546.325806 1.385753,547.096130 
z"/>
<path fill="#0C0C0C" opacity="1.000000" stroke="none" 
	d="
M284.468658,690.000000 
	C283.162537,687.310852 280.801819,688.444763 279.039490,687.930237 
	C250.649414,679.641907 229.765701,662.954041 218.874313,634.719910 
	C215.011780,624.706970 212.606384,614.507263 213.085281,603.867615 
	C213.901932,585.723633 226.558716,569.598206 245.291656,565.890076 
	C259.510345,563.075500 271.842041,566.545166 282.239777,575.978577 
	C289.986786,583.007202 294.562286,592.353271 294.908356,602.948242 
	C295.771301,629.367371 291.505890,655.151062 283.888336,681.066772 
	C289.589539,679.416626 293.866028,676.080627 298.258911,673.156128 
	C317.137146,660.588135 331.289307,643.598450 342.928619,624.390625 
	C352.455780,608.668335 359.625275,591.851318 365.205353,574.366516 
	C370.164978,558.825684 373.627777,542.958740 376.119263,526.806396 
	C379.219299,506.708954 380.267242,486.548981 379.993591,466.274323 
	C379.517944,431.034363 369.493195,398.693848 349.777008,369.529938 
	C339.484070,354.304871 326.353394,341.592224 311.760864,330.481323 
	C309.664917,328.885468 310.064423,328.517059 311.399994,327.046021 
	C320.703888,316.798584 329.049652,305.925537 334.543732,293.035431 
	C340.308807,279.509735 344.671509,265.661163 347.121063,251.104691 
	C349.278778,238.282608 348.941742,225.447327 348.989105,212.584946 
	C349.076691,188.802750 351.772156,165.393417 356.757935,142.077225 
	C361.263489,121.006935 368.101135,100.836731 377.323212,81.565811 
	C387.454987,60.393982 400.856720,41.253006 418.801910,25.818434 
	C433.755707,12.956748 450.761780,4.060374 470.859253,1.385713 
	C477.687653,1.000000 484.375275,1.000000 491.531464,1.000000 
	C496.215149,3.374701 501.082275,3.525387 505.601227,4.882076 
	C516.577026,8.177228 526.529236,13.329868 535.125122,20.744261 
	C548.840088,32.574093 558.987122,46.887608 563.336487,64.789993 
	C566.171753,76.460022 567.937744,88.207443 563.568481,99.891312 
	C558.603149,113.169067 548.797729,121.554764 535.324707,124.874443 
	C512.928467,130.392807 492.660919,118.206032 485.804657,96.294502 
	C483.161041,87.845955 483.359589,79.172844 484.784088,70.515106 
	C485.503967,66.139801 485.240967,61.706764 485.749237,57.285690 
	C486.661255,49.352989 487.883942,41.468365 489.262604,33.637703 
	C490.585541,26.123091 492.961456,18.793850 495.060608,10.662927 
	C486.843140,14.278071 479.961060,18.797707 473.447784,24.017597 
	C451.432709,41.661083 436.617401,64.641037 425.098206,89.892998 
	C415.995667,109.847298 409.855988,130.801651 405.958801,152.418060 
	C403.407684,166.568344 401.709869,180.757797 400.742706,195.131912 
	C400.039429,205.583572 399.811279,216.006470 400.130585,226.396393 
	C400.821381,248.875031 404.692169,270.733246 414.005737,291.507935 
	C423.707977,313.149536 437.716949,331.494812 455.028748,347.443909 
	C458.950928,351.057343 463.480133,354.010437 467.715820,357.285706 
	C469.567474,358.717499 470.601685,359.751160 468.375366,362.296295 
	C456.249786,376.158447 447.398407,391.997162 441.002686,409.246582 
	C433.550903,429.344116 430.452240,450.109009 430.960754,471.504822 
	C431.252014,483.760437 431.358765,496.052277 429.945312,508.246582 
	C427.690704,527.697876 424.573181,546.982056 419.129852,565.879822 
	C414.893921,580.585754 409.751404,594.874451 403.048462,608.621765 
	C395.133118,624.855591 385.520111,639.857544 373.353912,653.358765 
	C362.862213,665.001709 350.903870,674.442505 337.001953,681.441284 
	C329.219910,685.359131 320.858002,687.742065 312.132324,689.620972 
	C302.979095,690.000000 293.958221,690.000000 284.468658,690.000000 
z"/>
<path fill="#0C0C0C" opacity="1.000000" stroke="none" 
	d="
M1.000000,547.468384 
	C2.465359,546.211060 3.462898,545.211304 4.056525,543.471802 
	C9.324468,528.035095 26.068888,518.218933 41.273884,517.802246 
	C62.588905,517.218140 79.291901,532.189941 82.646049,552.076843 
	C84.092583,560.653442 83.458336,569.821655 82.269737,578.802490 
	C81.181320,587.026306 80.530678,595.303101 79.097527,603.516479 
	C77.384659,613.332947 75.045219,622.971252 72.216873,633.046753 
	C79.569794,630.564026 85.647026,626.412476 91.366478,621.987061 
	C115.326950,603.447754 131.155014,578.959412 143.336472,551.529785 
	C152.689453,530.469238 158.411392,508.459442 162.776749,486.059753 
	C164.607071,476.667908 165.276596,466.975739 166.184357,457.373993 
	C167.581177,442.599060 166.913025,427.854614 166.870819,413.111206 
	C166.837219,401.369751 164.894440,389.736786 163.213013,378.086273 
	C161.545547,366.532654 159.574509,355.068878 155.909668,344.050751 
	C150.827148,328.770416 142.094193,315.394562 132.247406,302.750458 
	C121.620728,289.105011 108.911942,277.713867 94.598351,268.063690 
	C94.075706,267.711304 93.709724,267.126556 92.469391,265.780396 
	C98.765396,267.381012 104.069557,268.574097 109.283318,270.080139 
	C143.678192,280.015106 178.047668,290.038055 212.439285,299.984467 
	C222.002701,302.750275 231.606415,305.377899 241.204193,308.023438 
	C246.528610,309.491058 246.902008,310.207520 243.998627,314.888123 
	C235.223465,329.034760 228.188583,343.959839 224.056000,360.126465 
	C221.318802,370.834412 219.152451,381.653625 218.963303,392.789917 
	C218.865540,398.546692 219.292358,404.277100 218.152679,410.075226 
	C217.073608,415.565033 218.994202,421.242157 218.902481,426.799103 
	C218.284958,464.211334 213.916641,501.056244 200.986588,536.465088 
	C192.592590,559.451965 181.734009,581.195129 166.159164,600.182129 
	C152.053360,617.378296 135.198807,631.010681 113.590424,638.157043 
	C86.422699,647.142090 61.249237,643.058350 37.845383,627.260986 
	C19.257105,614.714172 8.152247,596.905762 3.064752,575.231689 
	C2.792309,574.071045 2.698391,573.000916 1.370758,572.106323 
	C1.000000,572.000000 1.000000,571.500000 1.000000,571.250000 
	C1.904486,569.910095 1.443634,568.664490 1.201481,567.233398 
	C1.000000,560.645569 1.000000,554.291199 1.000000,547.468384 
z"/>
<path fill="#0C0C0C" opacity="1.000000" stroke="none" 
	d="
M2272.000000,418.583344 
	C2263.027832,424.224548 2254.822998,430.753265 2244.366455,433.325134 
	C2228.467285,437.235657 2212.623047,438.091736 2197.406250,431.575867 
	C2186.227539,426.789246 2179.874756,417.204987 2177.048828,405.468750 
	C2175.595703,399.434357 2174.917480,393.299683 2174.939941,387.026184 
	C2175.064697,351.882080 2174.945801,316.737030 2175.082764,281.593018 
	C2175.096680,278.030640 2174.510010,276.569489 2170.567627,276.903442 
	C2165.771973,277.309784 2160.911865,276.892456 2156.086426,277.046570 
	C2153.792236,277.119873 2153.004639,276.566315 2152.922852,274.071014 
	C2152.622803,264.904999 2152.413574,264.592743 2160.385254,262.303772 
	C2178.123047,257.210571 2189.621094,244.480331 2199.854004,230.342407 
	C2205.997803,221.853836 2210.048584,212.177200 2212.894531,202.091492 
	C2213.362305,200.433975 2213.749756,199.832108 2215.330078,199.996124 
	C2215.659668,200.030350 2215.996094,200.008591 2216.329102,199.998917 
	C2226.000000,199.718018 2226.000000,199.717728 2226.000000,209.337509 
	C2226.000000,225.827133 2226.121338,242.318359 2225.905273,258.805145 
	C2225.857910,262.414734 2226.914795,263.180237 2230.325928,263.084930 
	C2239.313232,262.833832 2248.313232,263.080963 2257.305664,262.948761 
	C2259.873779,262.911011 2261.064209,263.212585 2261.093018,266.322937 
	C2261.192139,277.001373 2261.340820,277.000000 2250.667725,277.000000 
	C2243.672119,277.000000 2236.674316,277.100494 2229.682129,276.947632 
	C2227.094727,276.891083 2225.914795,277.240723 2225.925537,280.337311 
	C2226.043945,314.482117 2225.802979,348.629700 2226.189453,382.770538 
	C2226.255859,388.606628 2226.833740,394.677734 2228.840088,400.476532 
	C2232.837891,412.030792 2242.866211,416.913727 2254.148682,412.381287 
	C2255.334717,411.904724 2256.557861,411.511566 2257.716797,410.977783 
	C2260.487793,409.701538 2263.368408,407.125214 2265.945557,407.410980 
	C2268.378174,407.680725 2268.547363,412.401154 2271.625977,413.997833 
	C2272.000000,415.388885 2272.000000,416.777802 2272.000000,418.583344 
z"/>
<path fill="#FFFFFF" opacity="1.000000" stroke="none" 
	d="
M1.000000,567.400024 
	C2.924770,567.949402 1.780931,569.471313 1.353901,570.896729 
	C1.000000,569.933350 1.000000,568.866699 1.000000,567.400024 
z"/>
<path fill="#0C0C0C" opacity="1.000000" stroke="none" 
	d="
M1480.000000,371.000000 
	C1480.000000,381.662781 1480.048584,391.825897 1479.987793,401.988312 
	C1479.909912,415.033234 1483.973755,419.321686 1496.980835,418.895142 
	C1501.138306,418.758789 1502.304443,419.807648 1502.110474,424.003082 
	C1501.741333,431.987457 1502.012085,432.000000 1493.987549,432.000000 
	C1467.497681,432.000031 1441.007202,431.916473 1414.518555,432.095367 
	C1410.802002,432.120453 1409.274048,431.253906 1409.987427,427.498413 
	C1410.079102,427.015991 1410.000000,426.501190 1409.999878,426.001373 
	C1409.999268,419.064697 1409.999268,419.064697 1417.008545,419.000000 
	C1424.715332,418.928864 1427.998657,415.629639 1427.999146,407.938995 
	C1428.001221,375.618011 1428.022461,343.296967 1427.982056,310.976044 
	C1427.973389,304.036377 1425.920166,297.636383 1422.251465,291.759033 
	C1416.479370,282.511841 1405.160034,280.910400 1397.360840,282.305695 
	C1386.840210,284.187897 1379.176514,290.979370 1371.591919,297.857971 
	C1370.177124,299.141235 1369.976440,300.532623 1369.978027,302.251190 
	C1370.007690,335.071960 1369.967773,367.892853 1370.048218,400.713440 
	C1370.056641,404.126617 1370.810791,407.536469 1371.180786,410.941010 
	C1371.754517,416.217194 1376.428589,418.868958 1383.224609,419.050995 
	C1385.453125,419.110687 1389.107666,417.842285 1389.653687,419.819641 
	C1390.636353,423.378357 1390.081055,427.411652 1389.844971,431.226654 
	C1389.773804,432.374756 1388.185791,431.985901 1387.246582,431.986420 
	C1357.757812,432.002533 1328.269165,431.978699 1298.780518,432.042786 
	C1296.625488,432.047485 1295.673950,431.487274 1295.982178,429.259399 
	C1296.095215,428.442078 1296.000366,427.595917 1295.999878,426.762909 
	C1295.994995,419.047363 1295.994995,419.047363 1303.748901,419.000000 
	C1314.186523,418.936249 1318.918091,414.474396 1318.953613,403.794617 
	C1319.074707,367.308929 1319.186646,330.820892 1318.845825,294.337982 
	C1318.776001,286.860840 1317.862183,282.798492 1307.620728,282.997894 
	C1306.787964,283.014130 1305.954712,283.000000 1305.121704,283.000000 
	C1296.969116,283.000000 1297.050171,282.999084 1296.955444,274.608551 
	C1296.922852,271.724762 1296.975342,270.422089 1300.826660,269.751526 
	C1314.877563,267.305084 1329.025269,265.466675 1343.045776,262.901428 
	C1350.529907,261.532135 1357.977783,260.955811 1365.549683,260.918549 
	C1368.465210,260.904205 1369.142334,261.828857 1369.060791,264.571014 
	C1368.870483,270.976135 1369.000000,277.390778 1369.000000,285.467377 
	C1374.594727,279.545746 1379.877075,275.636780 1385.417847,272.055206 
	C1395.419434,265.590118 1405.944824,261.137238 1418.063843,259.787964 
	C1429.849365,258.475891 1441.048462,259.289520 1452.045166,263.528198 
	C1466.426636,269.071503 1474.208618,280.244385 1477.914551,294.581329 
	C1479.462158,300.568237 1480.092773,306.754944 1480.048706,313.021912 
	C1479.914185,332.180450 1480.000000,351.340515 1480.000000,371.000000 
z"/>
<path fill="#0C0C0C" opacity="1.000000" stroke="none" 
	d="
M818.000000,451.877380 
	C818.000000,376.730103 817.975708,302.068329 818.072937,227.406723 
	C818.077698,223.734940 817.253601,220.217026 816.670227,216.724533 
	C816.145020,213.581024 814.257690,210.665512 810.123840,209.859024 
	C805.320679,208.921951 800.586060,207.722107 795.668884,208.040298 
	C793.049316,208.209808 791.924683,207.722076 791.909119,204.650970 
	C791.860107,194.999207 791.703857,195.000000 801.368713,195.000000 
	C831.866699,195.000000 862.366211,195.156937 892.861145,194.853302 
	C898.259766,194.799545 899.902527,196.418777 899.003784,201.382950 
	C898.974548,201.544312 898.975281,201.719910 899.003601,201.881592 
	C899.834473,206.622055 898.413757,208.725540 893.086304,208.148270 
	C889.604553,207.771011 885.892944,208.491318 882.418030,209.296890 
	C875.983215,210.788681 873.004272,215.880707 873.003235,224.631210 
	C872.996887,278.627625 873.000000,332.624054 873.000000,386.620483 
	C873.000000,394.786621 873.255981,402.962402 872.947388,411.116882 
	C872.276062,428.858429 871.075073,446.538513 865.123657,463.521393 
	C856.962646,486.809906 840.743835,500.318420 816.557861,505.138367 
	C804.216309,507.597809 791.834473,507.531097 779.565674,506.752655 
	C766.242126,505.907349 753.486145,501.901794 746.039673,489.365967 
	C739.746216,478.771240 740.170471,467.370941 746.194519,457.006470 
	C751.422241,448.012177 760.685486,444.806915 770.756836,446.114899 
	C788.155457,448.374542 796.526428,463.185577 790.080933,480.402710 
	C789.235107,482.662140 788.024048,484.783661 787.005432,486.979889 
	C785.267944,490.726105 786.550171,492.788300 790.756104,492.997375 
	C803.826233,493.647064 810.944458,487.716949 814.671875,475.497711 
	C816.944458,468.047760 817.648987,460.186157 818.000000,451.877380 
z"/>
<path fill="#0C0C0C" opacity="1.000000" stroke="none" 
	d="
M1621.036865,417.463867 
	C1627.032837,414.854980 1627.890625,409.610168 1627.902832,404.644562 
	C1628.052124,343.817657 1628.028198,282.990234 1627.966187,222.163025 
	C1627.957886,214.100632 1623.578979,209.681320 1615.695679,208.975784 
	C1613.768799,208.803360 1611.873657,208.299896 1609.954834,208.008301 
	C1607.383667,207.617584 1603.309814,209.289032 1602.508911,207.261887 
	C1601.254639,204.086746 1602.073853,200.090683 1602.024536,196.442215 
	C1602.010498,195.405670 1602.611450,195.008423 1603.578735,195.011353 
	C1604.745117,195.014877 1605.911621,195.000595 1607.078003,195.000580 
	C1664.405640,194.999924 1721.733398,195.055527 1779.060547,194.887741 
	C1783.345215,194.875198 1784.163330,196.048203 1784.103027,200.083466 
	C1783.855957,216.578125 1783.848389,233.081055 1784.110962,249.575226 
	C1784.173340,253.497009 1782.971069,254.185516 1779.400391,254.088043 
	C1770.720947,253.851105 1770.766357,254.017166 1767.985229,245.508545 
	C1764.973145,236.292755 1761.788452,227.224304 1754.662720,220.063522 
	C1748.946411,214.318893 1741.780029,212.265671 1734.250122,211.043472 
	C1721.402222,208.958099 1708.428589,210.287216 1695.512695,210.032669 
	C1686.892578,209.862778 1683.116211,213.234177 1683.061890,221.762497 
	C1682.892944,248.258774 1683.025879,274.756897 1682.953979,301.254059 
	C1682.947998,303.466919 1683.609863,304.058716 1685.775879,304.044830 
	C1699.607422,303.956116 1713.443604,304.202393 1727.270264,303.931641 
	C1737.228271,303.736664 1743.051147,299.037811 1745.950806,289.408630 
	C1747.246216,285.106934 1748.430420,280.683319 1748.855835,276.237610 
	C1749.164429,273.012665 1750.062256,271.938751 1753.293457,271.932098 
	C1761.000244,271.916229 1761.000000,271.773529 1761.000000,279.308441 
	C1761.000000,302.306152 1760.886475,325.304932 1761.107056,348.300507 
	C1761.145752,352.336395 1759.953857,353.593231 1756.174438,353.030884 
	C1754.870239,352.836823 1753.489868,352.842834 1752.184326,353.032440 
	C1749.423584,353.433380 1749.010498,352.149567 1748.924438,349.682953 
	C1748.703247,343.343018 1747.170410,337.089752 1744.603760,331.425385 
	C1741.073853,323.634857 1733.576782,321.272247 1725.688354,321.085205 
	C1712.530396,320.773224 1699.358765,321.083466 1686.195068,320.932251 
	C1683.450073,320.900726 1682.943115,321.834229 1682.950928,324.327240 
	C1683.031128,349.824463 1682.873047,375.322906 1683.054688,400.819061 
	C1683.142700,413.183044 1685.173706,415.661224 1697.115112,418.499298 
	C1700.748535,419.362823 1704.713989,419.094055 1708.509155,418.927246 
	C1711.379517,418.801086 1712.061890,419.744446 1712.073975,422.531036 
	C1712.114990,432.000519 1712.234863,432.000000 1702.950073,432.000000 
	C1670.786621,432.000000 1638.622681,431.922211 1606.460327,432.102631 
	C1602.622070,432.124115 1601.793335,431.086273 1601.906006,427.437286 
	C1602.166138,419.008820 1601.968506,418.846161 1610.575439,419.075684 
	C1614.098755,419.169617 1617.311768,417.734131 1621.036865,417.463867 
z"/>
<path fill="#0C0C0C" opacity="1.000000" stroke="none" 
	d="
M1949.309570,282.814148 
	C1955.327515,290.871613 1960.319336,299.074860 1963.005249,308.510284 
	C1968.136230,326.534058 1969.029907,344.800568 1967.137817,363.414276 
	C1965.915405,375.438873 1963.412720,386.868134 1958.099976,397.808838 
	C1950.240967,413.993866 1937.335815,424.066925 1920.803101,429.955780 
	C1903.846069,435.995819 1886.139526,436.858826 1868.467407,435.812073 
	C1855.460571,435.041687 1842.540161,432.770386 1830.478027,427.090240 
	C1810.614502,417.736389 1798.986206,402.055328 1793.963379,380.960144 
	C1790.908569,368.130524 1789.381592,355.121399 1790.105835,342.017395 
	C1791.166382,322.830566 1794.282715,304.149933 1805.950439,287.911530 
	C1814.785400,275.615540 1827.068115,268.645935 1840.970093,264.035004 
	C1857.439941,258.572479 1874.552490,258.257782 1891.589478,259.138519 
	C1908.168701,259.995575 1924.169922,263.877045 1938.294067,273.156189 
	C1942.236206,275.746033 1945.478638,279.400909 1949.309570,282.814148 
z"/>
<path fill="#0C0C0C" opacity="1.000000" stroke="none" 
	d="
M1088.000000,334.163513 
	C1088.000000,343.644135 1088.603394,352.691803 1087.877319,361.631531 
	C1086.248169,381.690948 1081.164551,400.657867 1066.127686,415.264404 
	C1056.149658,424.956879 1043.763062,430.195984 1030.226196,433.041077 
	C1017.587952,435.697388 1004.821594,436.549255 991.990173,435.939972 
	C974.870056,435.127014 958.200745,432.092224 943.298157,422.985291 
	C929.460449,414.529083 921.035522,401.988892 915.896057,386.702332 
	C909.980469,369.107788 910.105530,350.978516 911.261047,333.032898 
	C912.659485,311.314209 919.553955,291.273560 936.985962,276.598358 
	C946.148071,268.885223 957.165588,264.781433 968.708435,261.991913 
	C983.450012,258.429382 998.510437,258.134125 1013.414368,259.213928 
	C1030.236938,260.432709 1046.513794,264.357269 1060.539429,274.846283 
	C1070.656738,282.412567 1077.560059,292.234436 1081.891235,303.849823 
	C1085.460693,313.422607 1087.188965,323.485748 1088.000000,334.163513 
z"/>
<path fill="#0C0C0C" opacity="1.000000" stroke="none" 
	d="
M1134.231323,325.054077 
	C1117.928223,317.749359 1118.504272,299.330353 1125.119263,288.368896 
	C1134.423340,272.951813 1149.808960,267.348053 1165.931641,263.032776 
	C1181.604248,258.837891 1197.718140,259.369507 1213.621582,260.248993 
	C1225.605957,260.911713 1237.151855,264.638062 1246.082886,273.607086 
	C1254.216797,281.775513 1258.039185,292.060272 1258.904541,303.212616 
	C1261.428833,335.748322 1259.441528,368.359802 1259.924438,400.935120 
	C1259.973999,404.269043 1260.647949,407.481140 1261.356934,410.584503 
	C1262.605835,416.051880 1269.237793,418.058411 1275.869385,415.694489 
	C1277.952881,414.951782 1280.179810,411.580231 1282.050049,413.912323 
	C1284.142212,416.521240 1284.834229,420.297882 1285.940430,423.631134 
	C1286.398804,425.012207 1284.781128,424.889526 1284.072266,425.412628 
	C1276.469116,431.022278 1267.496704,433.339539 1258.514526,434.818115 
	C1248.366211,436.488647 1238.070068,437.116119 1227.823975,434.119843 
	C1220.834961,432.076080 1214.861328,428.882568 1211.280396,422.489136 
	C1209.709961,419.685242 1209.061401,420.014954 1206.679932,421.608673 
	C1190.360352,432.529541 1172.258545,437.476837 1152.703735,435.864441 
	C1144.095459,435.154633 1135.479858,433.757874 1127.631714,429.297089 
	C1116.683960,423.074646 1110.864868,413.876953 1110.006226,401.431915 
	C1108.612793,381.236847 1119.000000,367.528961 1134.846680,357.047729 
	C1151.702515,345.899017 1170.679199,339.901306 1190.062134,335.011230 
	C1195.073364,333.746948 1200.048340,332.379883 1205.243774,331.847412 
	C1207.552246,331.610809 1209.240723,330.399628 1209.132446,327.045563 
	C1208.765991,315.694336 1209.496704,304.292206 1207.000244,293.077026 
	C1204.289429,280.898682 1199.810913,277.172852 1187.967773,275.180573 
	C1181.765137,274.137115 1175.260498,274.694611 1169.087891,276.978638 
	C1162.109009,279.560974 1160.498779,284.201660 1165.291382,289.707306 
	C1171.622314,296.980286 1172.921387,305.061157 1168.990845,313.591034 
	C1164.877197,322.518097 1157.218994,326.625122 1147.527100,326.981140 
	C1143.133057,327.142609 1138.705811,327.276337 1134.231323,325.054077 
z"/>
<path fill="#0C0C0C" opacity="1.000000" stroke="none" 
	d="
M2135.023926,273.166443 
	C2141.447998,285.936707 2141.448730,298.186737 2133.949219,310.102142 
	C2131.048828,314.710022 2126.549316,317.327667 2121.236084,318.241577 
	C2111.291260,319.952026 2101.820801,319.888885 2094.091553,311.688629 
	C2088.810547,306.086273 2087.096924,293.762207 2091.983887,286.336334 
	C2093.118652,284.611664 2097.403564,282.347687 2093.099854,279.755646 
	C2090.180176,277.997070 2087.687012,280.083740 2085.469482,282.041840 
	C2076.661133,289.820312 2071.774170,300.002075 2068.069824,310.825775 
	C2064.513184,321.216522 2063.156006,332.039612 2063.048096,342.963837 
	C2062.870605,360.958221 2063.135986,378.957397 2062.901611,396.950500 
	C2062.845215,401.289093 2063.848877,405.431641 2064.195068,409.675354 
	C2064.475098,413.105896 2067.160400,415.681885 2070.624268,417.010895 
	C2075.937500,419.049408 2081.488525,419.318848 2087.037109,418.927429 
	C2090.420898,418.688751 2091.123779,419.891724 2091.078613,423.060974 
	C2090.951660,431.997925 2091.097900,432.000000 2081.923584,432.000000 
	C2052.429932,432.000000 2022.935547,431.913147 1993.443115,432.105255 
	C1989.570312,432.130463 1988.351074,431.021912 1988.992432,427.422546 
	C1989.050049,427.099548 1989.000122,426.757355 1989.000000,426.424103 
	C1988.997681,419.033356 1988.997559,419.033386 1996.590332,419.000031 
	C2007.111328,418.953827 2011.904541,414.564606 2011.945801,403.948853 
	C2012.087158,367.623840 2012.081299,331.297607 2011.946045,294.972565 
	C2011.909912,285.233124 2009.224609,283.000061 1999.233398,283.000000 
	C1989.835693,282.999939 1990.249756,282.981415 1989.835449,273.725067 
	C1989.607910,268.644318 1993.444824,269.458282 1995.511108,269.175018 
	C2012.552979,266.838562 2029.473877,263.784515 2046.458374,261.118103 
	C2050.849854,260.428711 2055.441162,261.070831 2059.938477,260.980347 
	C2062.861572,260.921570 2061.958984,263.033752 2061.968994,264.459930 
	C2062.030762,273.225647 2062.000000,281.991974 2062.000000,291.474182 
	C2064.635986,289.881592 2065.411621,287.815918 2066.489990,286.001282 
	C2072.080811,276.594452 2078.878418,268.201752 2089.025635,263.586914 
	C2100.282715,258.467194 2111.902588,258.220978 2123.543457,262.896393 
	C2128.553711,264.908722 2131.438232,269.183350 2135.023926,273.166443 
z"/>
<path fill="#FFFFFF" opacity="1.000000" stroke="none" 
	d="
M1914.000000,345.051575 
	C1914.409668,361.677643 1913.443115,377.752777 1909.850464,393.474213 
	C1907.522095,403.663361 1903.224609,413.165985 1893.566528,418.902893 
	C1883.651733,424.792297 1863.678223,422.806030 1856.393066,411.239136 
	C1851.045166,402.748322 1848.886597,393.624969 1846.975220,384.166687 
	C1845.071045,374.744141 1845.501465,365.182861 1844.838379,355.686920 
	C1843.941528,342.843323 1844.831909,330.101471 1846.197510,317.449951 
	C1847.435181,305.982422 1850.127563,294.807739 1856.592041,284.625610 
	C1866.426636,269.135162 1891.126709,268.610016 1902.089722,285.039001 
	C1907.077515,292.513916 1909.094482,300.973663 1910.783081,309.357880 
	C1913.107544,320.899414 1913.518555,332.766846 1914.000000,345.051575 
z"/>
<path fill="#FFFFFF" opacity="1.000000" stroke="none" 
	d="
M970.973022,297.034637 
	C973.862610,289.008911 977.205566,281.869171 984.374939,277.032806 
	C995.389771,269.602325 1015.565796,271.971619 1023.051270,285.920074 
	C1028.176514,295.470520 1030.456909,305.688293 1032.079712,316.269592 
	C1034.679321,333.221130 1034.507446,350.279633 1033.794067,367.253479 
	C1033.136841,382.890930 1031.392456,398.698639 1021.912292,412.088928 
	C1017.615356,418.158142 1011.414673,421.383484 1003.782776,422.051178 
	C982.467468,423.915955 973.247131,410.451172 969.032715,393.269348 
	C964.032532,372.884125 964.444763,352.047668 965.230469,331.347626 
	C965.662964,319.954071 966.740173,308.352966 970.973022,297.034637 
z"/>
<path fill="#FFFFFF" opacity="1.000000" stroke="none" 
	d="
M1209.000000,379.000000 
	C1209.000000,386.156647 1208.878906,392.816681 1209.063843,399.468231 
	C1209.131226,401.896820 1208.397705,403.715424 1206.478149,404.911743 
	C1197.665771,410.403748 1188.578125,414.585571 1177.630249,413.104828 
	C1170.417114,412.129120 1163.338135,405.397186 1161.976440,397.402130 
	C1158.658691,377.921631 1167.905640,365.076172 1181.842407,357.556763 
	C1190.343750,352.970032 1199.180664,349.412201 1209.000000,346.910767 
	C1209.000000,357.626404 1209.000000,368.063202 1209.000000,379.000000 
z"/>
</svg>