<?xml version="1.0" standalone="no"?>
<!DOCTYPE svg PUBLIC "-//W3C//DTD SVG 20010904//EN"
 "http://www.w3.org/TR/2001/REC-SVG-20010904/DTD/svg10.dtd">
<svg version="1.0" xmlns="http://www.w3.org/2000/svg"
 width="2247.000000pt" height="2247.000000pt" viewBox="0 0 2247.000000 2247.000000"
 preserveAspectRatio="xMidYMid meet">

<g transform="translate(0.000000,2247.000000) scale(0.100000,-0.100000)"
fill="#FFFFFF" stroke="none">
<path d="M3570 18505 l0 -575 350 0 350 0 -2 -3767 -3 -3768 -21 -46 c-12 -25
-36 -62 -53 -82 l-33 -37 -34 28 c-19 15 -34 31 -34 35 0 4 29 47 65 94 52 69
63 89 53 99 -7 6 -226 150 -486 319 -395 256 -476 305 -487 294 -9 -11 -2205
-3292 -2237 -3344 -4 -6 187 -138 443 -304 247 -162 449 -296 449 -298 0 -2
-27 -44 -61 -94 -33 -50 -59 -92 -57 -93 11 -10 940 -616 943 -616 2 0 63 87
136 192 72 106 135 196 139 201 3 4 42 -13 86 -39 863 -497 1988 -572 2934
-194 468 187 902 487 1243 859 447 486 735 1058 856 1706 57 302 54 139 58
3048 l4 2677 49 0 50 0 0 -4755 0 -4755 -335 0 -335 0 0 -575 0 -575 390 0
390 0 0 -390 0 -390 3470 0 3470 0 0 1915 0 1915 -390 0 -390 0 0 385 0 385
-580 0 -580 0 0 -340 0 -340 -605 0 -605 0 0 3370 0 3370 340 0 340 0 0 575 0
575 -387 2 -388 3 -3 388 -2 387 -1950 0 -1950 0 0 600 0 600 323 2 322 3 3
573 2 572 -390 0 -390 0 0 390 0 390 -2235 0 -2235 0 0 -575z m4220 0 l0 -325
-325 0 -325 0 0 -3922 c0 -2630 -4 -3963 -11 -4043 -36 -425 -146 -810 -334
-1180 -484 -951 -1407 -1597 -2460 -1720 -165 -19 -527 -20 -695 -1 -503 57
-933 208 -1375 485 l-109 68 -36 -51 c-20 -28 -83 -117 -139 -198 -56 -82
-104 -148 -106 -148 -9 0 -535 350 -535 355 0 8 1957 2914 1974 2932 9 10 69
-26 271 -158 143 -94 264 -174 268 -179 5 -4 -41 -85 -102 -178 -61 -94 -111
-177 -111 -185 0 -23 90 -85 157 -108 74 -27 221 -36 294 -19 149 34 302 155
367 290 66 135 62 -184 62 4083 l0 3877 -350 0 -350 0 0 325 0 325 1985 0
1985 0 0 -325z m4030 -3130 l0 -325 -340 0 -340 0 0 -4010 0 -4010 1245 0
1245 0 0 340 0 340 330 0 330 0 0 -1660 0 -1660 -3220 0 -3220 0 0 325 0 325
335 0 335 0 0 5005 0 5005 -175 0 -175 0 0 325 0 325 1825 0 1825 0 0 -325z"/>
<path d="M14230 13565 c0 -32 2 -35 31 -35 l31 0 -21 -27 c-205 -267 -290
-524 -278 -842 3 -80 8 -154 12 -163 6 -15 2 -18 -24 -18 -29 0 -31 -3 -31
-35 l0 -35 210 0 210 0 0 35 c0 34 -1 35 -39 35 l-40 0 -11 54 c-6 30 -10 74
-8 97 l3 42 113 38 112 38 0 -135 0 -134 -35 0 c-33 0 -35 -2 -35 -35 l0 -35
210 0 210 0 0 35 c0 33 -2 35 -35 35 l-35 0 0 525 0 525 35 0 c33 0 35 2 35
35 l0 35 -310 0 -310 0 0 -35z m268 -387 l-3 -142 -85 -27 c-47 -15 -90 -28
-97 -28 -26 -2 47 167 120 277 63 93 68 87 65 -80z"/>
<path d="M15010 13565 c0 -32 2 -35 31 -35 21 0 29 -4 26 -12 -127 -298 -169
-517 -147 -755 9 -102 27 -204 46 -265 4 -15 -1 -18 -25 -18 -29 0 -31 -3 -31
-35 l0 -35 210 0 210 0 0 35 c0 33 -2 35 -35 35 -34 0 -35 1 -55 68 -36 115
-53 254 -46 382 7 125 19 195 30 170 3 -8 60 -150 125 -315 l118 -300 -34 -3
c-30 -3 -33 -6 -33 -38 l0 -34 210 0 210 0 0 35 c0 33 -2 35 -35 35 l-35 0 0
525 0 525 35 0 c33 0 35 2 35 35 l0 35 -210 0 -210 0 0 -35 c0 -33 2 -35 35
-35 l35 0 -1 -142 0 -143 -71 178 -72 177 -158 0 -158 0 0 -35z"/>
<path d="M15880 13565 c0 -33 2 -35 35 -35 l35 0 0 -525 0 -525 -35 0 c-33 0
-35 -2 -35 -35 l0 -35 233 0 c160 0 252 5 298 14 202 43 385 217 445 421 21
73 23 217 5 295 -31 128 -116 257 -224 337 -141 105 -219 123 -529 123 l-228
0 0 -35z m532 -275 c65 -30 125 -91 156 -158 36 -76 37 -184 4 -253 -56 -115
-148 -179 -269 -187 l-73 -5 0 318 0 318 68 -5 c39 -3 86 -14 114 -28z"/>
<path d="M17270 13425 l0 -175 35 0 c33 0 35 2 35 35 l0 35 80 0 80 0 0 -420
0 -420 -35 0 c-33 0 -35 -2 -35 -35 l0 -35 210 0 210 0 0 35 c0 33 -2 35 -35
35 l-35 0 0 420 0 420 80 0 80 0 0 -35 c0 -33 2 -35 35 -35 l35 0 0 175 0 175
-370 0 -370 0 0 -175z"/>
<path d="M18070 13565 c0 -33 2 -35 35 -35 l35 0 0 -525 0 -525 -35 0 c-33 0
-35 -2 -35 -35 l0 -35 210 0 210 0 0 35 c0 33 -2 35 -35 35 l-35 0 0 265 0
265 120 0 120 0 0 -265 0 -265 -35 0 c-33 0 -35 -2 -35 -35 l0 -35 210 0 210
0 0 35 c0 33 -2 35 -35 35 l-35 0 0 525 0 525 35 0 c33 0 35 2 35 35 l0 35
-210 0 -210 0 0 -35 c0 -33 2 -35 35 -35 l35 0 0 -120 0 -120 -120 0 -120 0 0
120 0 120 35 0 c33 0 35 2 35 35 l0 35 -210 0 -210 0 0 -35z"/>
<path d="M19070 13565 c0 -33 2 -35 35 -35 l35 0 0 -525 0 -525 -35 0 c-33 0
-35 -2 -35 -35 l0 -35 360 0 360 0 0 175 0 175 -35 0 c-33 0 -35 -2 -35 -35
l0 -35 -150 0 -150 0 0 80 0 80 75 0 c73 0 75 -1 75 -25 0 -22 4 -25 35 -25
l35 0 0 195 0 195 -35 0 c-32 0 -35 -2 -35 -30 l0 -30 -75 0 -75 0 0 95 0 95
130 0 130 0 0 -35 c0 -33 2 -35 35 -35 l35 0 0 175 0 175 -340 0 -340 0 0 -35z"/>
<path d="M12240 12175 l0 -45 45 0 45 0 0 -670 0 -670 -45 0 -45 0 0 -45 0
-45 460 0 460 0 0 225 0 225 -45 0 -45 0 0 -45 0 -45 -195 0 -195 0 0 105 0
105 100 0 100 0 0 -35 c0 -35 0 -35 45 -35 l45 0 0 251 0 250 -42 -3 c-42 -3
-43 -4 -46 -41 l-3 -38 -97 3 -97 3 -3 118 -3 117 171 0 170 0 0 -45 0 -45 40
0 40 0 0 225 0 225 -430 0 -430 0 0 -45z"/>
<path d="M13240 12176 l0 -45 46 -3 47 -3 163 -312 163 -311 -55 -83 c-105
-156 -183 -340 -225 -526 l-23 -103 -48 0 -48 0 0 -45 0 -45 270 0 270 0 0 45
0 45 -40 0 c-30 0 -40 4 -40 16 0 27 67 219 98 280 l29 58 91 -175 c81 -154
89 -174 72 -177 -16 -3 -20 -11 -20 -48 l0 -44 265 0 265 0 0 45 0 45 -44 0
-44 0 -171 328 c-94 181 -171 334 -171 340 0 6 35 66 79 134 133 209 181 317
202 458 l11 80 49 0 49 0 0 45 0 45 -270 0 -270 0 0 -45 0 -45 36 0 37 0 -6
-49 c-6 -52 -38 -136 -82 -214 -32 -57 -23 -67 -123 125 -68 130 -70 137 -49
140 18 2 23 10 25 46 l3 42 -270 0 -271 0 0 -44z"/>
<path d="M14600 11995 l0 -225 45 0 45 0 0 50 0 50 100 0 100 0 0 -540 0 -540
-45 0 -45 0 0 -45 0 -45 270 0 270 0 0 45 0 45 -45 0 -45 0 0 540 0 541 103
-3 102 -3 3 -47 3 -48 40 0 39 0 0 225 0 225 -470 0 -470 0 0 -225z"/>
<path d="M15620 12175 l0 -45 45 0 45 0 0 -670 0 -670 -45 0 -45 0 0 -45 0
-45 460 0 460 0 0 225 0 225 -45 0 -45 0 0 -45 0 -45 -195 0 -195 0 0 105 0
105 100 0 100 0 0 -35 c0 -35 0 -35 45 -35 l45 0 0 251 0 250 -42 -3 c-42 -3
-43 -4 -46 -41 l-3 -38 -97 3 -97 3 -3 118 -3 117 171 0 170 0 0 -45 0 -45 40
0 40 0 0 225 0 225 -430 0 -430 0 0 -45z"/>
<path d="M16750 12175 l0 -45 39 0 40 0 -34 -72 c-85 -186 -147 -418 -166
-627 -16 -184 -2 -343 57 -613 6 -27 5 -28 -30 -28 l-36 0 0 -45 0 -45 265 0
265 0 0 44 0 45 -42 3 -42 3 -22 71 c-41 130 -55 218 -61 379 -5 150 7 312 25
342 5 9 217 -510 318 -779 5 -16 0 -18 -40 -18 l-46 0 0 -45 0 -45 270 0 270
0 0 45 0 45 -45 0 -45 0 0 670 0 670 45 0 45 0 0 45 0 45 -270 0 -270 0 0 -45
0 -45 45 0 45 0 -1 -177 0 -178 -87 220 -87 220 -203 3 -202 2 0 -45z"/>
<path d="M17860 12176 l0 -46 45 0 45 0 0 -670 0 -670 -45 0 -45 0 0 -46 0
-45 328 4 c362 4 384 7 516 73 184 92 327 256 392 449 35 104 44 281 20 395
-44 211 -210 421 -411 520 -142 70 -162 73 -522 78 l-323 3 0 -45z m681 -352
c257 -122 315 -450 115 -650 -32 -31 -80 -66 -112 -81 -58 -26 -198 -51 -228
-40 -14 6 -16 45 -16 408 l0 401 88 -4 c72 -2 98 -8 153 -34z"/>
<path d="M19210 12175 l0 -45 45 0 45 0 0 -670 0 -670 -45 0 -45 0 0 -45 0
-45 460 0 460 0 0 225 0 225 -45 0 -45 0 0 -45 0 -45 -195 0 -195 0 0 105 0
105 100 0 100 0 0 -35 c0 -35 0 -35 45 -35 l45 0 0 251 0 250 -42 -3 c-42 -3
-43 -4 -46 -41 l-3 -38 -97 3 -97 3 -3 118 -3 117 171 0 170 0 0 -45 0 -45 40
0 40 0 0 225 0 225 -430 0 -430 0 0 -45z"/>
<path d="M20200 12176 l0 -46 45 0 45 0 0 -670 0 -670 -45 0 -45 0 0 -46 0
-45 328 4 c362 4 384 7 516 73 184 92 327 256 392 449 35 104 44 281 20 395
-44 211 -210 421 -411 520 -142 70 -162 73 -522 78 l-323 3 0 -45z m681 -352
c257 -122 315 -450 115 -650 -32 -31 -80 -66 -112 -81 -58 -26 -198 -51 -228
-40 -14 6 -16 45 -16 408 l0 401 88 -4 c72 -2 98 -8 153 -34z"/>
<path d="M12234 10506 c-3 -7 -4 -38 -2 -67 l3 -54 68 -3 67 -3 0 -979 0 -979
-67 -3 -68 -3 -3 -62 -3 -63 396 0 395 0 0 65 0 65 -65 0 -65 0 0 350 0 350
145 0 145 0 0 -50 0 -50 65 0 65 0 0 365 0 366 -62 -3 -63 -3 -3 -52 -3 -53
-145 0 -144 0 0 175 0 175 240 0 240 0 0 -65 0 -65 65 0 65 0 0 330 0 330
-630 0 c-525 0 -632 -2 -636 -14z"/>
<path d="M14070 10451 l0 -70 55 -3 55 -3 -56 -70 c-239 -298 -405 -670 -476
-1063 -20 -113 -23 -157 -22 -392 1 -186 5 -289 16 -347 l14 -82 -55 -3 -56
-3 -3 -62 -3 -63 396 0 395 0 0 65 0 65 -74 0 -74 0 -18 98 c-10 53 -18 135
-18 181 l-1 85 210 68 c116 37 213 68 218 68 4 0 7 -112 7 -250 l0 -250 -70 0
-70 0 0 -65 0 -65 395 0 395 0 0 65 0 65 -65 0 -65 0 0 980 0 980 65 0 66 0
-3 68 -3 67 -577 3 -578 2 0 -69z m508 -723 l-3 -262 -175 -58 c-96 -31 -180
-57 -187 -57 -17 -1 46 178 107 304 47 98 124 224 182 298 20 24 38 37 54 37
l24 0 -2 -262z"/>
<path d="M17614 10506 c-3 -7 -4 -38 -2 -67 l3 -54 68 -3 67 -3 0 -979 0 -979
-67 -3 -68 -3 -3 -62 -3 -63 396 0 395 0 0 65 0 65 -65 0 -65 0 0 980 0 980
65 0 65 0 0 70 0 70 -390 0 c-321 0 -392 -2 -396 -14z"/>
<path d="M18514 10506 c-3 -7 -4 -38 -2 -67 l3 -54 68 -3 67 -3 0 -979 0 -979
-67 -3 -68 -3 -3 -62 -3 -63 636 0 635 0 0 330 0 331 -62 -3 -63 -3 -3 -67 -3
-68 -244 0 -245 0 0 785 0 784 68 3 67 3 0 65 0 65 -388 3 c-322 2 -388 0
-393 -12z"/>
<path d="M19664 10506 c-3 -7 -4 -38 -2 -67 l3 -54 63 -5 63 -5 270 -699 269
-698 0 -279 0 -279 -65 0 -65 0 0 -65 0 -65 390 0 390 0 0 65 0 65 -65 0 -65
0 0 293 0 292 267 687 268 688 63 0 62 0 0 70 0 70 -392 -2 -393 -3 -3 -67 -3
-68 57 0 c41 0 55 -3 51 -12 -2 -7 -55 -141 -116 -297 -61 -156 -115 -290
-119 -297 -6 -11 -161 372 -238 589 -5 15 1 17 50 17 l57 0 -3 68 -3 67 -393
3 c-326 2 -393 0 -398 -12z"/>
<path d="M15500 10445 l0 -65 70 0 c39 0 70 -1 70 -3 0 -2 -23 -55 -51 -118
-249 -555 -305 -1177 -156 -1746 l24 -92 -61 -3 -61 -3 -3 -62 -3 -63 411 0
410 0 0 65 0 65 -74 0 -74 0 -26 78 c-33 99 -61 213 -83 332 -29 154 -20 725
10 650 3 -8 63 -213 132 -455 69 -242 128 -448 131 -458 5 -16 24 -17 257 -15
l251 3 136 474 c151 529 141 513 160 266 18 -240 -7 -463 -81 -723 -46 -159
-40 -152 -121 -152 l-68 0 0 -65 0 -65 405 0 405 0 0 65 0 65 -60 0 c-33 0
-60 2 -60 4 0 3 13 60 30 128 55 229 65 327 65 623 0 287 -9 371 -60 590 -43
182 -116 388 -190 535 -19 38 -35 72 -35 75 0 3 34 5 75 5 l75 0 0 65 0 65
-325 0 -324 0 -14 -47 c-8 -27 -70 -240 -138 -475 -68 -235 -126 -425 -129
-422 -3 3 -66 215 -141 472 l-136 467 -321 3 -322 2 0 -65z"/>
</g>
</svg>
