<svg version="1.1" id="Layer_1" xmlns="http://www.w3.org/2000/svg" xmlns:xlink="http://www.w3.org/1999/xlink" x="0px" y="0px"
	 width="100%" viewBox="0 0 1530 1178" enable-background="new 0 0 1530 1178" xml:space="preserve">
<path fill="" opacity="1.000000" stroke="none" 
	d="
M1530.585449,1089.867310 
	C1531.000000,1118.158813 1530.921997,1146.317993 1531.094604,1174.475708 
	C1531.117310,1178.166626 1530.336182,1179.099243 1526.526245,1179.097778 
	C1249.104126,1178.990601 971.681946,1179.000000 694.259827,1179.000000 
	C483.485657,1179.000000 272.711487,1179.000000 61.468658,1179.000000 
	C61.672153,1176.000000 64.285301,1176.700562 66.223976,1176.421997 
	C76.166382,1174.993164 85.985397,1173.054077 94.880074,1168.168579 
	C110.539787,1159.567139 119.850739,1146.068970 124.427261,1129.029907 
	C128.515228,1113.809814 130.352371,1098.235718 130.411224,1082.570801 
	C130.639755,1021.759521 130.502518,960.946899 130.507797,900.134766 
	C130.508072,896.971619 130.419296,893.803528 131.091263,890.676392 
	C132.604279,883.635315 136.340988,879.966858 143.480423,878.816467 
	C146.601364,878.313599 149.752060,877.970703 152.889175,877.558777 
	C155.994186,877.151062 156.478027,875.149780 156.435059,872.567017 
	C156.390686,869.899597 155.136490,868.572937 152.468140,868.557129 
	C151.802689,868.553223 151.136597,868.502502 150.470215,868.502258 
	C119.814232,868.490112 89.158249,868.492859 58.502270,868.502075 
	C55.603298,868.502930 52.638752,868.325623 52.545952,872.585205 
	C52.482033,875.518982 53.360405,877.319275 56.603329,877.656982 
	C59.746338,877.984253 62.904900,878.322327 66.014023,878.894531 
	C73.017342,880.183350 76.447693,883.825378 77.551094,890.763672 
	C78.180595,894.721924 78.515419,898.684265 78.514030,902.699524 
	C78.489090,974.841064 78.539444,1046.982666 78.445290,1119.124023 
	C78.432243,1129.121826 77.675125,1139.124023 74.409172,1148.705444 
	C70.602745,1159.872559 62.907047,1165.611816 52.236889,1165.456299 
	C44.231529,1165.339600 42.146568,1162.082642 45.997398,1155.130127 
	C48.417385,1150.760864 49.613125,1146.294800 49.537754,1141.309082 
	C49.371471,1130.309570 44.025753,1122.926880 33.643864,1119.774414 
	C23.392954,1116.661621 12.346328,1120.411743 6.615490,1128.828735 
	C5.149938,1130.981201 4.625838,1133.875000 1.450098,1135.041626 
	C1.000000,758.578735 1.008549,382.157501 0.887992,5.736274 
	C0.886685,1.655293 1.734694,0.889722 5.761816,0.891237 
	C320.862091,1.009760 635.962402,1.000000 951.531372,1.000000 
	C952.038818,3.219957 950.147522,3.124084 948.842041,3.401070 
	C912.693298,11.070775 889.119263,34.867981 870.604248,64.842697 
	C851.733154,95.393906 841.718140,129.117142 836.395386,164.365891 
	C834.456604,177.205048 833.589417,190.132278 833.154724,203.141663 
	C832.645447,218.383881 833.942505,233.680817 831.381226,248.886246 
	C827.686096,270.823212 820.963440,291.562683 808.977112,310.443787 
	C805.649414,315.685669 801.240295,320.028870 797.278198,324.738617 
	C794.923523,327.537598 795.103760,329.454041 798.074890,331.684357 
	C817.599976,346.341125 832.675171,364.831787 843.971436,386.353271 
	C854.049683,405.554230 860.723206,425.881531 862.384888,447.654877 
	C865.101501,483.249939 863.413513,518.563110 854.958557,553.350586 
	C846.027832,590.095642 831.299133,624.084900 806.161255,652.896240 
	C796.427734,664.052124 784.846375,672.971436 771.834106,680.029724 
	C771.394958,680.267944 770.949341,680.503723 770.479553,680.671326 
	C769.098572,681.163696 767.613403,682.144287 766.280823,680.928894 
	C765.140747,679.888977 765.801147,678.402222 766.100037,677.148804 
	C767.413330,671.641296 769.037659,666.219055 770.280334,660.683716 
	C774.015320,644.047180 775.733215,627.154785 776.572388,610.194153 
	C777.608032,589.262573 764.628601,571.254944 745.804688,567.130188 
	C716.137817,560.629517 696.964966,585.058167 697.029114,605.564270 
	C697.142944,641.934509 724.245544,676.647217 759.435974,685.564453 
	C787.463440,692.666565 812.473083,686.614868 835.481812,669.976135 
	C853.539917,656.917542 866.861938,639.765198 877.687744,620.587463 
	C895.810730,588.482788 905.416931,553.706848 909.916992,517.278259 
	C911.389832,505.355713 911.198669,493.363007 912.603821,481.461121 
	C913.211975,476.309906 911.662231,471.135773 911.848328,466.040100 
	C912.193665,456.583374 912.738464,447.095093 914.397339,437.734283 
	C919.169678,410.804718 929.879883,386.510406 946.649963,364.885254 
	C950.884888,359.424316 950.780396,359.417969 945.542358,355.299927 
	C910.994629,328.139099 889.959412,292.942108 883.145203,249.481506 
	C881.730225,240.457138 881.749817,231.257935 881.579712,222.088959 
	C881.124023,197.523285 882.709167,173.165482 887.545410,149.052765 
	C893.861206,117.562805 904.611023,87.753700 921.883850,60.554043 
	C934.178589,41.193336 949.336121,24.543375 969.534546,13.028231 
	C970.258118,12.615751 970.946960,12.136343 971.699829,11.781885 
	C973.340088,11.009623 975.114502,9.719462 976.830811,10.993302 
	C978.554016,12.272304 977.988953,14.326552 977.480164,16.100960 
	C972.824829,32.336960 970.231567,48.951191 968.645142,65.719818 
	C967.860535,74.013390 967.536865,82.462791 968.667847,90.669632 
	C970.773193,105.946785 979.474243,116.877441 993.958313,122.102188 
	C1008.908630,127.495110 1022.834412,124.934708 1034.762085,113.856636 
	C1047.210571,102.294800 1049.111450,87.951515 1046.178589,72.113167 
	C1039.696289,37.107857 1013.830383,10.765564 978.934570,3.829076 
	C976.879089,3.420484 974.523621,3.686114 972.973145,1.395894 
	C1157.450928,1.000000 1341.901855,1.019970 1526.352661,0.875896 
	C1530.623169,0.872561 1531.097168,2.008465 1531.096069,5.850227 
	C1530.992798,365.921051 1531.000000,725.991882 1531.000000,1086.531372 
	C1528.921143,1087.209229 1527.984131,1085.617676 1527.244873,1084.229614 
	C1525.255737,1080.494629 1522.645020,1080.532715 1519.379395,1082.386963 
	C1516.324951,1084.121094 1513.058105,1085.366821 1509.575684,1086.001465 
	C1498.566162,1088.007935 1490.168945,1083.115601 1486.545044,1072.517212 
	C1484.252197,1065.811523 1483.679443,1058.780029 1483.636719,1051.821533 
	C1483.437866,1019.504822 1483.528564,987.186401 1483.564819,954.868591 
	C1483.573242,947.335510 1484.356567,946.602112 1491.892578,946.557007 
	C1499.055664,946.514160 1506.222412,946.420471 1513.380981,946.594727 
	C1517.354980,946.691406 1518.680298,944.969604 1518.579224,941.207092 
	C1518.447021,936.279907 1517.997925,935.538574 1513.306030,935.478943 
	C1505.810547,935.383606 1498.312744,935.523926 1490.817261,935.425232 
	C1484.613281,935.343628 1483.620117,934.378845 1483.582642,928.047424 
	C1483.486084,911.722290 1483.600952,895.396362 1483.501343,879.071350 
	C1483.485596,876.480774 1484.567505,873.097290 1480.173218,872.505493 
	C1475.704468,871.903748 1473.793457,872.882141 1472.287476,877.314392 
	C1467.219360,892.229248 1459.140869,905.387695 1448.437256,916.807312 
	C1440.124634,925.675964 1430.131836,932.277466 1418.238770,935.562073 
	C1415.412720,936.342468 1413.457642,937.468262 1413.434204,940.881470 
	C1413.402588,945.477173 1414.094971,946.424622 1418.782959,946.532166 
	C1422.446289,946.616272 1426.112061,946.548340 1429.776855,946.585205 
	C1433.434448,946.622009 1435.345581,948.302368 1435.391724,952.037476 
	C1435.414307,953.869446 1435.450928,955.701477 1435.451050,957.533691 
	C1435.453735,992.017151 1435.473145,1026.500610 1435.428833,1060.984009 
	C1435.422607,1065.856689 1435.985474,1070.636597 1437.197144,1075.323242 
	C1442.117676,1094.354370 1454.272461,1104.012451 1473.897217,1105.668091 
	C1492.963745,1107.276855 1510.232544,1103.114380 1525.676147,1091.714844 
	C1527.019775,1090.723022 1528.396851,1089.767944 1530.585449,1089.867310 
z"/>
<path fill="#0C0C0C" opacity="1.000000" stroke="none" 
	d="
M972.531494,1.000000 
	C979.294861,3.215576 986.087402,3.393230 992.325500,5.960738 
	C1021.656067,18.032757 1040.631470,38.790371 1047.042358,70.353035 
	C1048.842651,79.216026 1049.757202,87.872314 1047.089233,96.821098 
	C1043.059814,110.336662 1030.337280,122.399536 1016.490295,125.088417 
	C1001.916931,127.918358 989.307251,124.230492 978.885010,114.174683 
	C971.079285,106.643333 967.070251,97.091217 966.924255,85.875435 
	C966.607605,61.543224 969.765991,37.754135 976.830566,14.473125 
	C977.161621,13.382012 977.240417,12.203519 976.403687,10.846576 
	C968.446228,14.797448 961.105347,19.651802 954.198303,25.264549 
	C932.561890,42.846638 918.490906,65.944633 907.147156,90.790016 
	C897.769653,111.328957 892.127747,133.074158 887.833557,155.286224 
	C882.687012,181.907089 882.415405,208.715714 883.163147,235.554291 
	C883.707214,255.082382 888.977356,273.685303 896.852844,291.674103 
	C906.542542,313.807007 921.153931,332.083557 938.780334,348.188019 
	C942.352783,351.451965 946.441040,354.161072 950.361511,357.030304 
	C952.314758,358.459778 952.977783,359.278503 950.974854,361.712280 
	C933.900940,382.459167 922.407471,405.877563 916.837952,432.318939 
	C914.738342,442.286743 914.769653,452.399353 912.999756,462.335114 
	C912.285522,466.345062 914.147278,470.142334 913.986267,474.090942 
	C913.125671,495.195953 911.990417,516.219543 908.193420,537.119934 
	C903.323242,563.927490 895.245911,589.549316 882.957642,613.796387 
	C873.545166,632.368958 861.683228,649.336243 846.091431,663.264221 
	C831.693604,676.125732 815.258362,685.630737 795.922791,688.909241 
	C779.665039,691.665955 763.960999,689.243835 748.558411,683.302673 
	C737.714294,679.119812 728.326843,672.702698 720.484314,664.645508 
	C708.127380,651.950317 699.689819,636.798157 696.955078,618.864807 
	C694.967041,605.828308 694.954712,593.256042 703.001465,581.895142 
	C717.986633,560.738098 748.298889,559.714539 764.279480,575.687195 
	C775.656555,587.058472 779.754272,600.359741 777.127502,616.140503 
	C776.242249,621.458374 776.789734,626.941223 776.165222,632.393799 
	C774.289124,648.773132 771.253723,664.858826 766.158325,681.293762 
	C775.377563,677.030212 783.321838,671.801453 790.795227,665.734558 
	C812.440674,648.162964 826.525940,625.066406 837.845337,600.211304 
	C847.200073,579.670410 852.930298,557.961914 857.199707,535.724243 
	C862.378052,508.752197 862.630798,481.612946 861.799622,454.452576 
	C861.203552,434.973175 855.980774,416.317566 848.175781,398.304871 
	C842.223389,384.567688 834.626282,371.905609 825.506653,360.234467 
	C816.880676,349.195282 806.886475,339.272552 795.327576,331.227783 
	C792.109253,328.987915 792.706543,327.844574 794.827637,325.646240 
	C813.029236,306.781799 822.820679,283.802216 828.094482,258.464600 
	C830.643005,246.219986 832.176880,233.894165 831.808533,221.471313 
	C831.629639,215.435150 831.833069,209.459152 831.834412,203.455582 
	C831.838684,184.039719 834.357544,164.916779 838.172058,146.007416 
	C841.633423,128.848541 846.783936,112.111229 853.513123,95.858955 
	C860.769958,78.332352 869.840698,61.991367 881.437988,46.917652 
	C893.586792,31.127056 907.997864,18.263514 925.957458,9.568656 
	C934.105591,5.623822 942.693298,2.910636 951.861450,1.383945 
	C958.687622,1.000000 965.375305,1.000000 972.531494,1.000000 
z"/>
<path fill="#0C0C0C" opacity="1.000000" stroke="none" 
	d="
M1.000000,1135.468262 
	C4.144557,1133.509155 3.987374,1129.893311 5.682511,1127.417114 
	C11.616506,1118.749023 20.337347,1116.245483 29.511234,1117.301392 
	C39.048901,1118.399414 47.540443,1123.000610 50.049168,1133.624390 
	C51.785275,1140.976318 52.498112,1148.451294 47.444042,1155.123779 
	C46.776207,1156.005493 46.442158,1157.142944 45.970142,1158.169556 
	C44.056782,1162.331055 44.879665,1163.682861 49.503666,1164.000000 
	C63.387169,1164.952148 70.430008,1158.387329 73.858719,1145.822876 
	C76.173668,1137.339722 77.010086,1128.510010 77.008316,1119.652100 
	C76.993645,1046.181763 77.015190,972.711365 76.955948,899.241089 
	C76.952934,895.495972 76.754631,891.640686 75.856903,888.033447 
	C74.617256,883.052307 70.359589,880.767273 65.741829,880.172607 
	C62.521141,879.757874 59.243546,879.495972 56.021175,878.967834 
	C54.359844,878.695557 51.612331,880.128235 51.222828,877.976501 
	C50.615170,874.619751 50.994850,871.038940 51.320915,867.587524 
	C51.412525,866.617920 53.059933,867.015503 54.005234,867.015015 
	C87.658310,866.997253 121.311440,867.022766 154.964371,866.951599 
	C157.323318,866.946655 158.360947,867.538391 158.022064,869.985596 
	C157.886246,870.966309 157.874283,872.000610 158.021652,872.978027 
	C158.672928,877.297363 157.839813,879.596985 152.499191,879.218628 
	C149.577545,879.011597 146.335327,879.666809 143.280350,880.100159 
	C135.649796,881.182495 132.003967,886.429565 132.003082,895.671997 
	C131.997131,957.313782 132.145493,1018.956055 131.910446,1080.596924 
	C131.840836,1098.850708 130.101151,1116.989380 124.169167,1134.500366 
	C116.290123,1157.759033 100.254967,1171.367065 76.276482,1176.092529 
	C71.303772,1177.072632 66.368301,1177.975098 61.156044,1178.602783 
	C55.645069,1179.000000 50.290142,1179.000000 44.467606,1179.000000 
	C41.920826,1177.968506 39.721375,1178.670044 37.289322,1178.777100 
	C36.555553,1179.000000 36.111111,1179.000000 35.333332,1179.000000 
	C28.601377,1177.468018 21.946350,1176.684448 16.261572,1172.987915 
	C9.334350,1168.483521 3.173600,1163.316040 1.222206,1154.300903 
	C1.000000,1147.978882 1.000000,1141.957642 1.000000,1135.468262 
z"/>
<path fill="#0C0C0C" opacity="1.000000" stroke="none" 
	d="
M1531.000000,1089.625000 
	C1524.724976,1093.575806 1519.262939,1098.419800 1512.450928,1101.210449 
	C1504.291504,1104.553223 1496.001465,1106.412720 1487.159790,1107.231689 
	C1477.543091,1108.122437 1468.457153,1107.087769 1459.532837,1103.956909 
	C1447.673096,1099.796387 1440.606812,1091.285034 1436.856689,1079.320557 
	C1434.350586,1071.324951 1433.971313,1063.312988 1433.981689,1055.119995 
	C1434.025146,1020.970947 1433.917847,986.821411 1434.108154,952.673340 
	C1434.130859,948.589417 1432.889038,947.666260 1429.150269,947.926453 
	C1424.674316,948.237976 1420.154541,947.866333 1415.664429,948.051147 
	C1413.052124,948.158691 1411.632080,947.730530 1411.942749,944.639648 
	C1412.224487,941.835327 1411.201782,938.617737 1412.256104,936.251465 
	C1413.337769,933.823853 1417.013794,934.699158 1419.478149,933.854492 
	C1438.242554,927.423462 1450.977417,914.144409 1461.061523,897.706543 
	C1465.884033,889.845459 1469.707764,881.595215 1471.943237,872.653320 
	C1472.250488,871.424744 1472.607300,870.940796 1473.783569,871.001892 
	C1474.115723,871.019226 1474.450684,871.017395 1474.782715,870.997864 
	C1485.000000,870.397522 1485.000000,870.397034 1485.000000,880.792847 
	C1485.000000,897.284363 1485.093750,913.776855 1484.917725,930.266541 
	C1484.884155,933.412537 1485.743042,934.144531 1488.787476,934.076111 
	C1498.111206,933.866760 1507.444702,934.102417 1516.770264,933.935669 
	C1519.448242,933.887817 1520.021606,934.740356 1520.067627,937.288269 
	C1520.260620,948.001648 1520.353271,948.000000 1509.699829,948.000000 
	C1502.536865,948.000061 1495.370239,948.130188 1488.212646,947.933716 
	C1485.496704,947.859192 1484.943726,948.783936 1484.949219,951.308167 
	C1485.024658,985.790222 1484.914795,1020.272949 1485.092163,1054.754272 
	C1485.118652,1059.907959 1485.925049,1065.165771 1487.153198,1070.183838 
	C1490.322632,1083.131226 1501.958130,1088.504028 1514.390869,1083.118774 
	C1514.986328,1082.860962 1515.599487,1082.638794 1516.179443,1082.350098 
	C1525.203369,1077.857666 1525.202393,1077.855591 1530.654541,1086.906250 
	C1531.000000,1087.750000 1531.000000,1088.500000 1531.000000,1089.625000 
z"/>
<path fill="" opacity="1.000000" stroke="none" 
	d="
M1.000000,1154.468750 
	C4.402515,1157.743408 5.734072,1162.750000 9.620437,1166.412964 
	C16.015314,1172.440186 23.395176,1175.592163 31.784330,1176.942993 
	C32.984032,1177.135986 33.993134,1177.314331 34.889320,1178.624634 
	C24.578505,1179.000000 14.155631,1178.909912 3.736574,1179.069336 
	C1.408099,1179.104980 0.859819,1178.642334 0.927188,1176.274536 
	C1.129396,1169.167236 1.000000,1162.050415 1.000000,1154.468750 
z"/>
<path fill="" opacity="1.000000" stroke="none" 
	d="
M37.437439,1179.000000 
	C39.054779,1177.086426 41.458664,1178.249023 43.864586,1178.618164 
	C41.958294,1179.000000 39.916584,1179.000000 37.437439,1179.000000 
z"/>
<path fill="#0C0C0C" opacity="1.000000" stroke="none" 
	d="
M642.295593,500.318420 
	C645.811401,482.818207 648.216858,465.611481 649.274841,448.124817 
	C649.927368,437.340302 650.382751,426.552856 649.816467,415.865448 
	C648.534912,391.678314 645.809937,367.536102 638.773987,344.284363 
	C634.952881,331.656830 627.747620,320.346039 620.039795,309.567383 
	C607.835938,292.501556 592.983093,278.160858 575.112061,266.709869 
	C577.949158,264.897827 580.146423,267.170807 582.523865,267.327148 
	C585.022644,267.491486 587.451111,268.692657 589.915283,269.423767 
	C619.622253,278.238190 649.380249,286.868835 679.255554,295.103882 
	C694.722290,299.367218 709.968323,304.431641 725.435730,308.692230 
	C729.414917,309.788300 729.462341,311.231537 727.566223,313.902435 
	C716.703857,329.203186 709.806763,346.293030 705.407471,364.366272 
	C703.532837,372.067688 702.636841,380.014587 701.838135,387.977264 
	C700.239929,403.909454 701.451172,419.826294 701.018921,435.740265 
	C700.414978,457.978271 698.085388,479.930481 693.251038,501.737427 
	C687.848022,526.109253 679.628845,549.314026 667.905823,571.253235 
	C658.771729,588.347534 647.230286,603.785339 632.697388,616.692200 
	C618.092529,629.663086 601.327454,639.467773 581.803772,641.680847 
	C562.336426,643.887573 543.278320,641.385742 525.793701,630.573120 
	C511.331177,621.629333 500.197449,610.026367 492.610870,595.040527 
	C485.795624,581.578308 482.158020,567.056396 484.214935,552.068298 
	C486.339142,536.589661 495.365448,525.278015 510.355927,520.138733 
	C525.710327,514.874695 540.364136,517.216125 552.592468,528.293396 
	C561.032410,535.938843 565.852539,546.089294 565.853394,557.516418 
	C565.854797,576.641846 563.901611,595.625244 559.412415,614.318115 
	C557.958679,620.370972 556.625977,626.469971 554.681213,632.658142 
	C587.099792,626.036865 635.934631,551.855774 642.295593,500.318420 
z"/>
<path fill="#0C0C0C" opacity="1.000000" stroke="none" 
	d="
M738.000000,1103.000000 
	C716.006897,1103.000000 694.513306,1102.928467 673.021240,1103.076660 
	C669.782288,1103.098999 668.408203,1102.284058 668.992310,1099.001221 
	C669.049744,1098.678223 669.000427,1098.336182 668.999939,1098.002930 
	C668.987915,1090.073853 668.987915,1090.073853 677.008972,1090.000122 
	C683.607178,1089.939331 686.992065,1086.512939 686.994568,1079.789917 
	C687.006653,1047.300293 687.196655,1014.808716 686.860962,982.322571 
	C686.777710,974.258789 684.831360,966.352173 678.689941,960.119690 
	C671.139282,952.457153 662.389038,952.220947 652.676758,954.654968 
	C643.541077,956.944458 637.386963,963.433655 630.482239,968.966370 
	C628.944641,970.198486 628.985779,971.729858 628.986694,973.408325 
	C629.004578,1006.397766 628.964722,1039.387329 629.052979,1072.376465 
	C629.062073,1075.781250 629.539490,1079.243286 630.273804,1082.574219 
	C631.394958,1087.659790 634.808472,1089.912109 640.686584,1090.000122 
	C649.018188,1090.124756 648.807373,1090.132080 649.092163,1098.195435 
	C649.227234,1102.019043 648.277832,1103.130859 644.282959,1103.103271 
	C616.126648,1102.908569 587.968018,1102.925781 559.811279,1103.087769 
	C556.023132,1103.109497 554.728333,1102.324463 554.892517,1098.288818 
	C555.228577,1090.025513 554.977783,1090.015503 563.219849,1090.000122 
	C573.142578,1089.981812 577.916809,1085.348145 577.952637,1074.824707 
	C578.075806,1038.670044 578.050110,1002.514587 577.966370,966.359741 
	C577.944214,956.802246 574.892883,954.021667 565.281311,954.000000 
	C554.855286,953.976501 554.835876,953.900024 555.947998,943.262878 
	C556.120361,941.614624 556.520935,941.195618 558.211121,940.932312 
	C574.545105,938.388611 590.816711,935.412964 607.188660,933.160950 
	C613.403137,932.306152 619.832336,933.034119 626.163269,932.992554 
	C628.760925,932.975464 627.958862,934.889832 627.971375,936.184204 
	C628.033813,942.617798 627.999817,949.052246 627.999817,956.078979 
	C635.038330,950.201660 641.515930,944.706116 648.968506,940.381958 
	C658.675537,934.749573 668.834290,931.523926 680.081848,930.894531 
	C691.686279,930.245178 702.884277,930.728638 713.611572,935.910645 
	C728.784546,943.240173 735.874817,956.088989 737.888123,971.916321 
	C740.578857,993.069153 738.539612,1014.384155 738.951843,1035.623901 
	C739.210388,1048.947998 738.792664,1062.285278 739.067444,1075.608765 
	C739.276611,1085.750977 742.113220,1089.957275 753.474670,1089.995483 
	C761.002808,1090.020752 760.705322,1090.018066 761.110657,1097.482300 
	C761.357544,1102.030029 760.055237,1103.451294 755.486877,1103.102661 
	C749.854736,1102.672974 744.164917,1103.000000 738.000000,1103.000000 
z"/>
<path fill="#0C0C0C" opacity="1.000000" stroke="none" 
	d="
M936.000000,867.000000 
	C970.488647,867.000000 1004.477600,867.064026 1038.465576,866.907959 
	C1042.150757,866.891052 1043.157471,867.694946 1043.102539,871.486572 
	C1042.863647,887.977661 1042.911255,904.475037 1043.076538,920.967834 
	C1043.108765,924.188660 1042.319946,925.138733 1039.011475,925.089050 
	C1029.725830,924.949707 1029.748169,925.107422 1026.642822,916.229126 
	C1024.736572,910.778564 1022.618591,905.441223 1020.132263,900.190125 
	C1014.470642,888.233215 1004.097595,883.923279 992.184509,882.053528 
	C979.679016,880.090759 967.036011,881.078857 954.453247,881.052124 
	C944.630249,881.031311 942.248474,884.965881 942.131958,893.349976 
	C941.771057,919.336304 942.067444,945.331238 941.914429,971.321655 
	C941.895325,974.563416 942.907410,975.104797 945.842773,975.067932 
	C958.503235,974.909180 971.173706,974.741516 983.827209,975.078857 
	C994.659058,975.367615 1002.667725,970.823120 1005.947998,958.169128 
	C1006.756287,955.051331 1007.247009,951.852173 1008.007446,948.720459 
	C1008.388794,947.149963 1006.777649,944.539978 1009.293884,944.153748 
	C1012.546448,943.654419 1015.951233,943.888245 1019.260681,944.163757 
	C1020.364441,944.255676 1019.986877,945.843689 1019.987488,946.789856 
	C1020.003052,971.614929 1019.972046,996.440002 1020.046936,1021.264893 
	C1020.053650,1023.490662 1019.347229,1023.963989 1017.219543,1024.063110 
	C1008.064087,1024.490112 1008.115784,1024.246826 1006.904724,1014.998779 
	C1005.489075,1004.189026 1002.033691,996.081726 992.092407,993.617554 
	C988.963318,992.841919 985.726013,992.118347 982.528198,992.072144 
	C970.201538,991.894226 957.869812,992.082581 945.542297,991.937012 
	C942.764404,991.904297 941.921692,992.607544 941.934326,995.478699 
	C942.047058,1021.136353 941.878662,1046.795898 942.129700,1072.451538 
	C942.167664,1076.340332 942.238464,1080.632324 944.683350,1084.134644 
	C947.911438,1088.758789 953.079895,1089.182007 958.017761,1089.968750 
	C959.317627,1090.175903 960.678528,1090.000000 962.011414,1090.000000 
	C971.611572,1090.000000 972.508057,1091.237671 971.075684,1101.036499 
	C970.656372,1103.905151 968.840027,1102.950439 967.455933,1102.960449 
	C957.293213,1103.033569 947.129700,1103.000000 936.966431,1103.000000 
	C913.141052,1103.000000 889.314819,1102.902954 865.491089,1103.099976 
	C861.716309,1103.131226 860.780884,1102.183228 860.901245,1098.469482 
	C861.175476,1090.007080 860.961426,1090.012207 869.541504,1089.990967 
	C871.531372,1089.986084 873.610596,1090.220825 875.495789,1089.742676 
	C885.250610,1087.268066 886.762695,1084.655396 886.894775,1074.625977 
	C887.217346,1050.138306 887.000000,1025.643677 887.000000,1001.151794 
	C887.000000,966.496704 886.950684,931.841370 887.082764,897.186768 
	C887.094849,894.010986 886.629578,890.949890 885.869385,888.019409 
	C884.578735,883.043945 880.341736,880.768860 875.724915,880.172302 
	C872.504517,879.756226 869.226440,879.494141 866.003662,878.967712 
	C864.346924,878.697083 861.605957,880.127747 861.219910,877.959412 
	C860.622070,874.601440 860.818542,870.979248 861.405579,867.595276 
	C861.631836,866.291016 864.098938,867.033875 865.523682,867.031189 
	C888.849060,866.987122 912.174561,867.000000 936.000000,867.000000 
z"/>
<path fill="#0C0C0C" opacity="1.000000" stroke="none" 
	d="
M1050.000000,1033.127686 
	C1047.562622,1006.695984 1049.495972,981.550110 1065.022583,959.348511 
	C1074.473755,945.834351 1088.084717,938.139587 1103.756104,934.055969 
	C1118.147583,930.305969 1132.922729,929.201538 1147.699951,930.110107 
	C1165.422607,931.199646 1182.647461,934.604309 1197.703491,944.970215 
	C1210.236084,953.598816 1217.599243,965.801025 1222.004272,980.063232 
	C1226.862915,995.793579 1227.768311,1011.999573 1226.875244,1028.232666 
	C1225.965820,1044.765625 1222.983765,1061.021118 1213.888428,1075.317871 
	C1203.660645,1091.394531 1188.225952,1099.781494 1170.070801,1104.042847 
	C1154.961060,1107.589355 1139.583862,1107.814453 1124.352783,1106.764282 
	C1108.880005,1105.697388 1093.884277,1101.980591 1080.454468,1093.205933 
	C1065.715698,1083.576050 1057.458130,1069.757568 1053.087769,1053.278564 
	C1051.389648,1046.875122 1049.901001,1040.330322 1050.000000,1033.127686 
z"/>
<path fill="#0C0C0C" opacity="1.000000" stroke="none" 
	d="
M289.132843,1104.024414 
	C283.710907,1106.384766 278.130066,1106.604370 272.963501,1106.767822 
	C256.566772,1107.286255 240.213226,1107.387939 223.977631,1103.185303 
	C196.109131,1095.971680 179.655701,1078.533691 172.889465,1050.835815 
	C169.021332,1035.001465 169.332657,1018.976990 170.282959,1003.110229 
	C171.293732,986.234009 176.279602,970.063904 187.193222,956.540771 
	C196.036652,945.582764 207.859802,939.039124 221.220535,934.991394 
	C237.139297,930.168762 253.512711,929.142029 269.888123,930.186340 
	C283.069397,931.026917 296.237732,933.217163 308.358063,939.097900 
	C327.974609,948.615784 338.814911,964.908508 344.018585,985.568054 
	C348.025269,1001.475403 347.731506,1017.722839 346.751617,1033.777100 
	C345.711121,1050.825195 341.083679,1067.111572 330.046906,1080.954224 
	C321.619781,1091.524048 310.563690,1097.891113 297.973236,1101.900024 
	C295.249542,1102.767090 292.624359,1104.357422 289.132843,1104.024414 
z"/>
<path fill="#0C0C0C" opacity="1.000000" stroke="none" 
	d="
M541.796631,1086.435425 
	C545.606079,1095.786377 545.699829,1095.990967 537.059387,1099.949585 
	C519.891357,1107.815063 501.941925,1109.392334 483.748199,1104.699097 
	C478.193542,1103.266235 473.222351,1099.465454 470.470276,1093.891235 
	C469.200989,1091.320435 468.579926,1090.458008 465.617096,1092.620605 
	C448.479706,1105.129517 428.830200,1108.492188 408.201721,1106.892090 
	C397.996948,1106.100342 388.131287,1103.165405 380.104797,1096.464478 
	C373.100616,1090.616943 369.811249,1082.508911 369.027863,1073.509155 
	C367.136230,1051.777954 378.968292,1037.756592 395.952972,1027.069214 
	C412.579132,1016.607666 430.965210,1010.360962 450.027771,1006.010925 
	C454.741150,1004.935425 459.471161,1003.916931 464.225189,1003.044617 
	C465.725494,1002.769348 467.011993,1002.271912 466.932312,1000.748535 
	C466.252899,987.759216 468.626312,974.677002 465.359802,961.750854 
	C462.622284,950.918030 454.753510,947.107727 444.838348,946.056335 
	C437.921692,945.322937 431.230988,946.555664 425.087036,950.003296 
	C420.216431,952.736450 419.598267,955.571472 423.326294,959.765991 
	C430.397186,967.721680 432.532501,976.497131 427.340485,986.043091 
	C423.287842,993.494263 416.799316,997.815186 407.996460,998.003662 
	C401.958344,998.132996 396.006042,998.199341 390.467072,994.997437 
	C378.009583,987.796143 377.708466,971.681335 383.069244,961.449951 
	C391.304077,945.733154 406.209747,939.701416 421.892792,935.054138 
	C437.706665,930.368164 454.075745,930.247986 470.293793,931.197632 
	C482.581848,931.917175 494.639557,935.077271 504.111694,943.748901 
	C511.216309,950.253052 514.842957,958.927856 516.983826,968.193420 
	C519.341125,978.395447 519.024536,988.786438 519.010681,999.156982 
	C518.977661,1023.809753 518.996094,1048.462524 519.009705,1073.115234 
	C519.010559,1074.602905 518.914734,1076.148804 519.263977,1077.569092 
	C521.843567,1088.059326 527.417358,1090.585693 537.372192,1085.901245 
	C538.791504,1085.233398 540.335205,1083.131470 541.796631,1086.435425 
z"/>
<path fill="#0C0C0C" opacity="1.000000" stroke="none" 
	d="
M1271.000000,1052.000000 
	C1271.000000,1024.841309 1270.933716,998.182312 1271.074219,971.524414 
	C1271.094238,967.703308 1270.406128,964.032410 1269.928345,960.318848 
	C1269.297607,955.414551 1265.123291,954.816223 1261.317749,954.041565 
	C1260.197510,953.813477 1258.992188,954.001099 1257.825928,954.000244 
	C1248.861938,953.993652 1248.994507,953.992737 1248.923218,944.812683 
	C1248.900391,941.861572 1249.583984,941.256287 1252.655396,940.837036 
	C1264.038452,939.283081 1275.307617,936.915344 1286.667480,935.164917 
	C1297.074463,933.561218 1307.537598,932.463074 1318.124512,932.916565 
	C1320.695801,933.026733 1321.078125,933.926025 1321.042603,936.141968 
	C1320.927856,943.304626 1320.958740,950.470764 1321.035767,957.634460 
	C1321.050659,959.020203 1320.194824,961.137512 1321.667725,961.675842 
	C1323.870972,962.481079 1324.057739,959.863098 1324.718628,958.625427 
	C1330.474609,947.845215 1338.290894,939.197144 1349.608398,934.117676 
	C1361.583130,928.743164 1381.915771,929.294250 1390.845093,940.259399 
	C1395.191528,945.596802 1398.009644,951.333252 1397.996338,958.290527 
	C1397.983276,965.127319 1398.671997,972.066772 1394.926147,978.345032 
	C1390.634155,985.538635 1384.730469,990.006958 1375.982910,990.020020 
	C1369.118408,990.030273 1362.404419,990.296326 1356.284912,985.916565 
	C1347.995239,979.983704 1345.691772,966.204224 1350.683594,957.611755 
	C1351.691650,955.876465 1356.145508,954.177734 1352.667603,951.439941 
	C1349.716919,949.117249 1346.599121,951.246704 1344.216553,953.330627 
	C1334.434082,961.886414 1329.952271,973.502075 1325.996826,985.406433 
	C1323.197632,993.830688 1322.301636,1002.610840 1322.119263,1011.337830 
	C1321.729736,1029.990723 1322.131226,1048.659058 1321.905029,1067.317383 
	C1321.850464,1071.813354 1322.644775,1076.148560 1323.096313,1080.538330 
	C1323.636719,1085.792969 1329.263550,1089.529785 1336.501099,1089.985840 
	C1337.994751,1090.080078 1339.499390,1090.000000 1340.998901,1090.000000 
	C1350.631714,1090.000000 1351.492065,1091.191772 1350.076538,1101.024536 
	C1349.663818,1103.891113 1347.856567,1102.955566 1346.468018,1102.962280 
	C1333.305542,1103.025635 1320.142700,1103.000000 1306.979980,1103.000000 
	C1288.652100,1103.000000 1270.323486,1102.912842 1251.997192,1103.080566 
	C1248.710815,1103.110474 1247.865601,1102.219849 1247.915771,1098.977051 
	C1248.054199,1090.035034 1247.894775,1090.032593 1256.534790,1090.000000 
	C1266.502197,1089.962402 1270.812134,1085.102295 1270.981323,1073.493652 
	C1271.083252,1066.497192 1271.000000,1059.497925 1271.000000,1052.000000 
z"/>
<path fill="" opacity="1.000000" stroke="none" 
	d="
M1173.000000,1030.847412 
	C1171.645264,1045.520508 1171.427490,1059.928833 1165.968140,1073.400269 
	C1160.244141,1087.524536 1151.979980,1093.919312 1138.463867,1093.699097 
	C1124.526367,1093.471924 1115.963867,1088.107788 1110.126953,1072.729858 
	C1105.785889,1061.293457 1104.267212,1049.132568 1104.093872,1036.918457 
	C1104.023560,1031.954224 1102.851074,1027.062622 1103.089722,1022.176758 
	C1103.948730,1004.595215 1103.690430,986.831299 1109.054688,969.791687 
	C1112.586060,958.574097 1117.711670,948.586914 1130.396362,944.953430 
	C1142.043945,941.617126 1156.016113,946.741577 1162.211060,958.455750 
	C1167.635864,968.713867 1169.738647,979.614136 1171.019409,990.882568 
	C1172.511108,1004.005981 1173.239380,1017.158875 1173.000000,1030.847412 
z"/>
<path fill="" opacity="1.000000" stroke="none" 
	d="
M251.377075,1092.987427 
	C236.720078,1088.760376 231.233749,1077.495239 228.011780,1064.445435 
	C222.853821,1043.554565 223.392334,1022.222046 224.249832,1001.046448 
	C224.834671,986.604431 226.958939,972.083618 233.989502,958.894531 
	C239.079636,949.345703 247.039154,944.477478 257.720490,944.021423 
	C269.219269,943.530334 277.439362,949.279907 282.864471,958.766724 
	C288.042969,967.822205 289.566986,978.082764 291.101837,988.341736 
	C293.538971,1004.631348 293.514618,1021.005859 292.806488,1037.310059 
	C292.141815,1052.613770 290.778473,1068.131470 281.912689,1081.499023 
	C275.366638,1091.368896 265.963379,1095.055664 254.298126,1093.021606 
	C253.489838,1092.880737 252.636185,1093.000000 251.377075,1092.987427 
z"/>
<path fill="" opacity="1.000000" stroke="none" 
	d="
M456.183350,1081.343628 
	C448.378174,1084.118774 441.115417,1086.429810 432.890991,1083.210083 
	C426.270905,1080.618286 422.547485,1076.178833 421.112518,1069.837769 
	C418.467651,1058.150513 420.712646,1047.214600 428.597565,1038.041260 
	C433.952209,1031.811646 441.207458,1027.990479 448.698608,1024.750610 
	C454.597839,1022.199402 460.664215,1020.126831 466.999939,1018.308105 
	C466.999939,1036.237305 466.966949,1054.043701 467.045593,1071.849487 
	C467.054504,1073.864258 466.638733,1075.493896 464.921844,1076.492920 
	C462.154205,1078.103516 459.290588,1079.549316 456.183350,1081.343628 
z"/>
</svg>