<svg version="1.1" id="Layer_1" xmlns="http://www.w3.org/2000/svg" xmlns:xlink="http://www.w3.org/1999/xlink" x="0px" y="0px"
	 width="100%" viewBox="0 0 565 689" enable-background="new 0 0 565 689" xml:space="preserve">

<path fill="#9fd8cb" opacity="1.000000" stroke="none" 
	d="
M566.000000,96.531380 
	C565.322937,97.655403 564.299561,98.188614 564.018982,98.983894 
	C554.348206,126.396347 520.019714,134.395798 499.310089,116.990250 
	C489.223419,108.512802 484.144501,97.989861 484.092194,85.209663 
	C483.997437,62.058464 487.158203,39.281708 493.524933,16.985628 
	C493.703156,16.361465 493.934143,15.731254 493.974304,15.093390 
	C494.047241,13.935587 493.994995,12.769900 493.994995,9.689682 
	C484.556763,16.554220 475.461975,21.988712 467.775085,28.972780 
	C440.695740,53.576260 424.843872,85.096809 414.038940,119.458115 
	C408.675690,136.514114 404.429810,153.880814 403.075317,171.752777 
	C401.717560,189.668716 400.205231,207.632187 400.184692,225.576462 
	C400.153320,252.991409 406.357239,279.172028 419.779633,303.302094 
	C431.725769,324.778168 447.409180,343.037750 467.618286,357.235046 
	C468.562927,357.898682 469.460541,358.629272 469.319946,358.522308 
	C461.426941,371.475250 453.183441,383.389862 446.640717,396.174866 
	C439.482422,410.162659 434.351715,425.138916 433.064453,441.008972 
	C432.051605,453.495667 431.235168,466.027954 431.085144,478.549042 
	C430.718842,509.115997 426.808594,539.063171 418.326691,568.517761 
	C410.619873,595.280762 399.363800,620.263916 382.678802,642.489807 
	C367.531982,662.666626 348.946075,678.858398 324.132019,686.351807 
	C319.646606,687.706177 314.931305,688.299194 310.161072,689.621887 
	C301.645782,690.000000 293.291534,690.000000 284.468658,690.000000 
	C280.122986,688.662903 276.238373,687.347412 272.370178,685.985291 
	C242.475327,675.458801 223.245987,654.836914 215.278610,624.255737 
	C212.659851,614.204224 211.345856,603.745239 214.953537,593.299438 
	C219.920639,578.917419 229.757080,569.811829 244.251907,566.100769 
	C270.294586,559.433472 295.147614,580.390686 295.075409,606.058594 
	C295.005463,630.919922 291.196411,655.155945 284.506958,679.016296 
	C284.353180,679.564758 284.227722,680.121216 284.089050,680.673950 
	C284.438416,681.056274 284.787811,681.438599 285.137207,681.820984 
	C293.091095,676.385071 301.528503,671.530701 308.903534,665.398621 
	C327.244659,650.148499 340.527557,630.813843 350.993744,609.585083 
	C362.062775,587.133545 370.083191,563.569153 373.915405,538.779602 
	C376.084686,524.747009 377.669525,510.601440 378.892029,496.452728 
	C379.788361,486.078796 380.138336,475.606628 379.910095,465.196259 
	C379.272583,436.111908 372.397278,408.612762 358.040619,383.113434 
	C348.689392,366.504395 336.731293,352.024261 322.669312,339.267242 
	C318.716553,335.681305 314.213715,332.701782 309.873230,329.375153 
	C315.476715,322.178101 321.529724,315.484253 326.344116,307.994232 
	C336.246124,292.589020 342.169708,275.495148 346.034851,257.625214 
	C349.704346,240.659943 348.735229,223.478851 349.048370,206.332779 
	C349.584045,176.996490 353.357483,148.073517 362.572723,120.138359 
	C367.015045,106.671860 372.103607,93.326874 378.092865,80.483337 
	C387.646729,59.995640 400.825439,41.876450 417.790680,26.789465 
	C431.995087,14.157670 448.391449,5.612660 467.200867,2.067353 
	C468.977783,1.732429 470.840973,1.855362 472.832062,1.382861 
	C477.356903,1.000000 481.713806,1.000000 486.708038,1.386091 
	C490.417267,2.178441 493.537537,2.363812 496.553619,3.024748 
	C530.844421,10.539135 553.301392,30.815418 563.091919,64.784698 
	C563.540161,66.339989 565.007385,67.601608 566.000000,69.000000 
	C566.000000,69.000000 566.000000,69.500000 565.655090,69.866867 
	C565.540100,71.489151 565.770081,72.744576 566.000000,74.000000 
	C566.000000,81.354256 566.000000,88.708504 566.000000,96.531380 
z"/>
<path fill="#11255d" opacity="1.000000" stroke="none" 
	d="
M1.000003,548.468384 
	C1.677132,547.344666 2.716561,546.808838 2.977825,546.016418 
	C8.101182,530.476746 19.205515,521.013611 34.767342,518.377258 
	C56.139931,514.756531 76.415016,526.312439 81.634811,548.740051 
	C83.807358,558.074768 82.676140,568.382751 81.877808,578.152649 
	C80.884064,590.313904 78.913803,602.415100 76.906319,614.465759 
	C75.829437,620.930176 73.790657,627.234253 72.999069,634.583191 
	C81.367798,628.519958 90.049957,622.840820 98.043594,616.317932 
	C118.102432,599.949768 131.115753,578.275879 141.843826,555.236633 
	C150.946793,535.687439 156.709091,515.011658 161.153336,493.860107 
	C167.002899,466.020172 168.121109,437.889801 166.698608,409.751099 
	C165.822678,392.423737 162.670151,375.113922 159.343826,358.029053 
	C153.097672,325.947144 133.886734,301.586212 110.475914,280.141632 
	C105.149498,275.262573 98.906219,271.384399 93.416283,265.917633 
	C144.615433,280.656189 195.814575,295.394714 247.407242,310.246552 
	C236.167557,326.266327 228.030640,343.113312 223.880417,361.620850 
	C221.680206,371.432434 220.241882,381.453705 219.111465,391.453979 
	C218.222794,399.315735 218.166779,407.287811 218.041092,415.215637 
	C217.874420,425.729401 218.226318,436.253662 217.954300,446.763000 
	C217.331161,470.838745 213.841476,494.579315 206.807556,517.571472 
	C202.047531,533.130920 196.490051,548.598938 189.580276,563.304871 
	C182.760330,577.819580 173.868820,591.285950 163.180939,603.568726 
	C152.605774,615.721863 140.620605,625.828857 126.364464,633.144958 
	C112.652023,640.182068 97.916489,643.929504 82.523331,642.856934 
	C64.544876,641.604126 48.028790,635.924805 33.705040,624.326477 
	C18.587370,612.085449 8.387655,596.938416 3.904453,577.960754 
	C3.585964,576.612610 2.459275,575.455505 1.354190,574.104736 
	C1.000000,573.555542 1.000000,573.111084 1.344918,572.216431 
	C1.459890,570.510864 1.229942,569.255432 0.999997,568.000000 
	C1.000000,561.645569 1.000000,555.291199 1.000003,548.468384 
z"/>
</svg>